<svg width="48" height="45" viewBox="0 0 48 45" fill="none" xmlns="http://www.w3.org/2000/svg">
<path d="M23.2429 2.65558C28.7659 2.65558 33.2429 7.13258 33.2429 12.6556C33.2429 18.1786 28.7659 22.6556 23.2429 22.6556C21.5409 22.6556 19.9379 22.2306 18.5349 21.4806L13.2429 22.6556L14.4189 17.3656C13.6689 15.9616 13.2429 14.3586 13.2429 12.6556C13.2429 7.13258 17.7199 2.65558 23.2429 2.65558ZM24.2429 7.65558H22.2429V14.6556H28.2429V12.6556H24.2429V7.65558Z" fill="#184910"/>
<path d="M0.878906 43V35H2.08594V38.4766H6.07422V35H7.28516V43H6.07422V39.5117H2.08594V43H0.878906ZM10.25 35V43H9.04297V35H10.25ZM16.3711 37.1016C16.3294 36.7318 16.1576 36.4453 15.8555 36.2422C15.5534 36.0365 15.1732 35.9336 14.7148 35.9336C14.3867 35.9336 14.1029 35.9857 13.8633 36.0898C13.6237 36.1914 13.4375 36.332 13.3047 36.5117C13.1745 36.6888 13.1094 36.8906 13.1094 37.1172C13.1094 37.3073 13.1536 37.4714 13.2422 37.6094C13.3333 37.7474 13.4518 37.8633 13.5977 37.957C13.7461 38.0482 13.9049 38.125 14.0742 38.1875C14.2435 38.2474 14.4063 38.2969 14.5625 38.3359L15.3438 38.5391C15.599 38.6016 15.8607 38.6862 16.1289 38.793C16.3971 38.8997 16.6458 39.0404 16.875 39.2148C17.1042 39.3893 17.2891 39.6055 17.4297 39.8633C17.5729 40.1211 17.6445 40.4297 17.6445 40.7891C17.6445 41.2422 17.5273 41.6445 17.293 41.9961C17.0612 42.3477 16.724 42.625 16.2813 42.8281C15.8411 43.0313 15.3086 43.1328 14.6836 43.1328C14.0846 43.1328 13.5664 43.0378 13.1289 42.8477C12.6914 42.6576 12.349 42.388 12.1016 42.0391C11.8542 41.6875 11.7174 41.2708 11.6914 40.7891H12.9023C12.9258 41.0781 13.0195 41.319 13.1836 41.5117C13.3503 41.7018 13.5625 41.8437 13.8203 41.9375C14.0807 42.0286 14.3659 42.0742 14.6758 42.0742C15.0169 42.0742 15.3203 42.0208 15.5859 41.9141C15.8542 41.8047 16.0651 41.6536 16.2188 41.4609C16.3724 41.2656 16.4492 41.0378 16.4492 40.7773C16.4492 40.5404 16.3815 40.3464 16.2461 40.1953C16.1133 40.0443 15.9323 39.9193 15.7031 39.8203C15.4766 39.7214 15.2201 39.6341 14.9336 39.5586L13.9883 39.3008C13.3477 39.1263 12.8398 38.8698 12.4648 38.5312C12.0924 38.1927 11.9063 37.7448 11.9063 37.1875C11.9063 36.7266 12.0313 36.3242 12.2813 35.9805C12.5313 35.6367 12.8698 35.3698 13.2969 35.1797C13.724 34.987 14.2057 34.8906 14.7422 34.8906C15.2839 34.8906 15.7617 34.9857 16.1758 35.1758C16.5924 35.3659 16.9206 35.6276 17.1602 35.9609C17.3997 36.2917 17.5247 36.6719 17.5352 37.1016H16.3711ZM18.6924 36.0391V35H24.8838V36.0391H22.3877V43H21.1846V36.0391H18.6924ZM32.8574 39C32.8574 39.8542 32.7012 40.5885 32.3887 41.2031C32.0762 41.8151 31.6478 42.2865 31.1035 42.6172C30.5618 42.9453 29.946 43.1094 29.2559 43.1094C28.5632 43.1094 27.9447 42.9453 27.4004 42.6172C26.8587 42.2865 26.4316 41.8138 26.1191 41.1992C25.8066 40.5846 25.6504 39.8516 25.6504 39C25.6504 38.1458 25.8066 37.4128 26.1191 36.8008C26.4316 36.1862 26.8587 35.7148 27.4004 35.3867C27.9447 35.056 28.5632 34.8906 29.2559 34.8906C29.946 34.8906 30.5618 35.056 31.1035 35.3867C31.6478 35.7148 32.0762 36.1862 32.3887 36.8008C32.7012 37.4128 32.8574 38.1458 32.8574 39ZM31.6621 39C31.6621 38.349 31.5566 37.8008 31.3457 37.3555C31.1374 36.9076 30.8509 36.569 30.4863 36.3398C30.1243 36.1081 29.7142 35.9922 29.2559 35.9922C28.7949 35.9922 28.3835 36.1081 28.0215 36.3398C27.6595 36.569 27.373 36.9076 27.1621 37.3555C26.9538 37.8008 26.8496 38.349 26.8496 39C26.8496 39.651 26.9538 40.2005 27.1621 40.6484C27.373 41.0937 27.6595 41.4323 28.0215 41.6641C28.3835 41.8932 28.7949 42.0078 29.2559 42.0078C29.7142 42.0078 30.1243 41.8932 30.4863 41.6641C30.8509 41.4323 31.1374 41.0937 31.3457 40.6484C31.5566 40.2005 31.6621 39.651 31.6621 39ZM34.3623 43V35H37.2139C37.8337 35 38.348 35.1068 38.7568 35.3203C39.1683 35.5339 39.4756 35.8294 39.6787 36.207C39.8818 36.582 39.9834 37.0156 39.9834 37.5078C39.9834 37.9974 39.8805 38.4284 39.6748 38.8008C39.4717 39.1706 39.1644 39.4583 38.7529 39.6641C38.3441 39.8698 37.8298 39.9727 37.21 39.9727H35.0498V38.9336H37.1006C37.4912 38.9336 37.8089 38.8776 38.0537 38.7656C38.3011 38.6536 38.4821 38.4909 38.5967 38.2773C38.7113 38.0638 38.7686 37.8073 38.7686 37.5078C38.7686 37.2057 38.71 36.944 38.5928 36.7227C38.4782 36.5013 38.2972 36.332 38.0498 36.2148C37.805 36.0951 37.4834 36.0352 37.085 36.0352H35.5693V43H34.3623ZM38.3115 39.3906L40.2881 43H38.9131L36.9756 39.3906H38.3115ZM40.5449 35H41.916L44.0059 38.6367H44.0918L46.1816 35H47.5527L44.6504 39.8594V43H43.4473V39.8594L40.5449 35Z" fill="#184910"/>
</svg>
