<svg width="44" height="44" viewBox="0 0 44 44" fill="none" xmlns="http://www.w3.org/2000/svg">
<path d="M28.5748 19.3836C28.5748 19.6373 28.474 19.8807 28.2946 20.0601C28.1152 20.2395 27.8718 20.3403 27.6181 20.3403H14.2232C13.9695 20.3403 13.7261 20.2395 13.5467 20.0601C13.3672 19.8807 13.2664 19.6373 13.2664 19.3836V10.7726H10.3961L20.2767 1.79037C20.4529 1.63009 20.6825 1.54127 20.9206 1.54127C21.1588 1.54127 21.3884 1.63009 21.5646 1.79037L31.4452 10.7726H28.5748V19.3836Z" fill="#428837"/>
<path d="M5.87891 42V34H7.08594V37.4766H11.0742V34H12.2852V42H11.0742V38.5117H7.08594V42H5.87891ZM20.9922 38C20.9922 38.8542 20.8359 39.5885 20.5234 40.2031C20.2109 40.8151 19.7826 41.2865 19.2383 41.6172C18.6966 41.9453 18.0807 42.1094 17.3906 42.1094C16.6979 42.1094 16.0794 41.9453 15.5352 41.6172C14.9935 41.2865 14.5664 40.8138 14.2539 40.1992C13.9414 39.5846 13.7852 38.8516 13.7852 38C13.7852 37.1458 13.9414 36.4128 14.2539 35.8008C14.5664 35.1862 14.9935 34.7148 15.5352 34.3867C16.0794 34.056 16.6979 33.8906 17.3906 33.8906C18.0807 33.8906 18.6966 34.056 19.2383 34.3867C19.7826 34.7148 20.2109 35.1862 20.5234 35.8008C20.8359 36.4128 20.9922 37.1458 20.9922 38ZM19.7969 38C19.7969 37.349 19.6914 36.8008 19.4805 36.3555C19.2721 35.9076 18.9857 35.569 18.6211 35.3398C18.2591 35.1081 17.849 34.9922 17.3906 34.9922C16.9297 34.9922 16.5182 35.1081 16.1563 35.3398C15.7943 35.569 15.5078 35.9076 15.2969 36.3555C15.0885 36.8008 14.9844 37.349 14.9844 38C14.9844 38.651 15.0885 39.2005 15.2969 39.6484C15.5078 40.0937 15.7943 40.4323 16.1563 40.6641C16.5182 40.8932 16.9297 41.0078 17.3906 41.0078C17.849 41.0078 18.2591 40.8932 18.6211 40.6641C18.9857 40.4323 19.2721 40.0937 19.4805 39.6484C19.6914 39.2005 19.7969 38.651 19.7969 38ZM22.4971 34H23.9619L26.5088 40.2187H26.6025L29.1494 34H30.6143V42H29.4658V36.2109H29.3916L27.0322 41.9883H26.0791L23.7197 36.207H23.6455V42H22.4971V34ZM32.3691 42V34H37.3848V35.0391H33.5762V37.4766H37.123V38.5117H33.5762V40.9609H37.4316V42H32.3691Z" fill="#428837"/>
</svg>
