<svg width="45" height="44" viewBox="0 0 45 44" fill="none" xmlns="http://www.w3.org/2000/svg">
<path d="M22 2C27.52 2 32 6.48 32 12C32 17.52 27.52 22 22 22C16.48 22 12 17.52 12 12C12 6.48 16.48 2 22 2ZM16.023 15.416C17.491 17.606 19.695 19 22.16 19C24.624 19 26.829 17.607 28.296 15.416C26.6317 13.8606 24.4379 12.9968 22.16 13C19.8817 12.9966 17.6875 13.8604 16.023 15.416ZM22 11C22.7956 11 23.5587 10.6839 24.1213 10.1213C24.6839 9.55871 25 8.79565 25 8C25 7.20435 24.6839 6.44129 24.1213 5.87868C23.5587 5.31607 22.7956 5 22 5C21.2044 5 20.4413 5.31607 19.8787 5.87868C19.3161 6.44129 19 7.20435 19 8C19 8.79565 19.3161 9.55871 19.8787 10.1213C20.4413 10.6839 21.2044 11 22 11Z" fill="#184910"/>
<path d="M0.878906 42V34H3.73047C4.35286 34 4.86849 34.1133 5.27734 34.3398C5.6862 34.5664 5.99219 34.8763 6.19531 35.2695C6.39844 35.6602 6.5 36.1003 6.5 36.5898C6.5 37.082 6.39714 37.5247 6.19141 37.918C5.98828 38.3086 5.68099 38.6185 5.26953 38.8477C4.86068 39.0742 4.34635 39.1875 3.72656 39.1875H1.76563V38.1641H3.61719C4.01042 38.1641 4.32943 38.0964 4.57422 37.9609C4.81901 37.8229 4.9987 37.6354 5.11328 37.3984C5.22786 37.1615 5.28516 36.8919 5.28516 36.5898C5.28516 36.2878 5.22786 36.0195 5.11328 35.7852C4.9987 35.5508 4.81771 35.3672 4.57031 35.2344C4.32552 35.1016 4.0026 35.0352 3.60156 35.0352H2.08594V42H0.878906ZM7.91504 42V34H10.7666C11.3864 34 11.9007 34.1068 12.3096 34.3203C12.721 34.5339 13.0283 34.8294 13.2314 35.207C13.4346 35.582 13.5361 36.0156 13.5361 36.5078C13.5361 36.9974 13.4333 37.4284 13.2275 37.8008C13.0244 38.1706 12.7171 38.4583 12.3057 38.6641C11.8968 38.8698 11.3825 38.9727 10.7627 38.9727H8.60254V37.9336H10.6533C11.0439 37.9336 11.3617 37.8776 11.6064 37.7656C11.8538 37.6536 12.0348 37.4909 12.1494 37.2773C12.264 37.0638 12.3213 36.8073 12.3213 36.5078C12.3213 36.2057 12.2627 35.944 12.1455 35.7227C12.0309 35.5013 11.8499 35.332 11.6025 35.2148C11.3577 35.0951 11.0361 35.0352 10.6377 35.0352H9.12207V42H7.91504ZM11.8643 38.3906L13.8408 42H12.4658L10.5283 38.3906H11.8643ZM21.9541 38C21.9541 38.8542 21.7979 39.5885 21.4854 40.2031C21.1729 40.8151 20.7445 41.2865 20.2002 41.6172C19.6585 41.9453 19.0426 42.1094 18.3525 42.1094C17.6598 42.1094 17.0413 41.9453 16.4971 41.6172C15.9554 41.2865 15.5283 40.8138 15.2158 40.1992C14.9033 39.5846 14.7471 38.8516 14.7471 38C14.7471 37.1458 14.9033 36.4128 15.2158 35.8008C15.5283 35.1862 15.9554 34.7148 16.4971 34.3867C17.0413 34.056 17.6598 33.8906 18.3525 33.8906C19.0426 33.8906 19.6585 34.056 20.2002 34.3867C20.7445 34.7148 21.1729 35.1862 21.4854 35.8008C21.7979 36.4128 21.9541 37.1458 21.9541 38ZM20.7588 38C20.7588 37.349 20.6533 36.8008 20.4424 36.3555C20.234 35.9076 19.9476 35.569 19.583 35.3398C19.221 35.1081 18.8109 34.9922 18.3525 34.9922C17.8916 34.9922 17.4801 35.1081 17.1182 35.3398C16.7562 35.569 16.4697 35.9076 16.2588 36.3555C16.0505 36.8008 15.9463 37.349 15.9463 38C15.9463 38.651 16.0505 39.2005 16.2588 39.6484C16.4697 40.0937 16.7562 40.4323 17.1182 40.6641C17.4801 40.8932 17.8916 41.0078 18.3525 41.0078C18.8109 41.0078 19.221 40.8932 19.583 40.6641C19.9476 40.4323 20.234 40.0937 20.4424 39.6484C20.6533 39.2005 20.7588 38.651 20.7588 38ZM23.459 42V34H28.4199V35.0391H24.666V37.4766H28.0645V38.5117H24.666V42H23.459ZM31.1113 34V42H29.9043V34H31.1113ZM32.8691 42V34H34.0762V40.9609H37.7012V42H32.8691ZM39.0781 42V34H44.0938V35.0391H40.2852V37.4766H43.832V38.5117H40.2852V40.9609H44.1406V42H39.0781Z" fill="#184910"/>
</svg>
