<svg width="32" height="44" viewBox="0 0 32 44" fill="none" xmlns="http://www.w3.org/2000/svg">
<path d="M7 4H25V6H7V4ZM7 11H25V13H7V11ZM7 18H25V20H7V18Z" fill="#878987"/>
<path d="M0.878906 34H2.34375L4.89063 40.2187H4.98438L7.53125 34H8.99609V42H7.84766V36.2109H7.77344L5.41406 41.9883H4.46094L2.10156 36.207H2.02734V42H0.878906V34ZM17.7002 38C17.7002 38.8542 17.5439 39.5885 17.2314 40.2031C16.9189 40.8151 16.4906 41.2865 15.9463 41.6172C15.4046 41.9453 14.7887 42.1094 14.0986 42.1094C13.4059 42.1094 12.7874 41.9453 12.2432 41.6172C11.7015 41.2865 11.2744 40.8138 10.9619 40.1992C10.6494 39.5846 10.4932 38.8516 10.4932 38C10.4932 37.1458 10.6494 36.4128 10.9619 35.8008C11.2744 35.1862 11.7015 34.7148 12.2432 34.3867C12.7874 34.056 13.4059 33.8906 14.0986 33.8906C14.7887 33.8906 15.4046 34.056 15.9463 34.3867C16.4906 34.7148 16.9189 35.1862 17.2314 35.8008C17.5439 36.4128 17.7002 37.1458 17.7002 38ZM16.5049 38C16.5049 37.349 16.3994 36.8008 16.1885 36.3555C15.9801 35.9076 15.6937 35.569 15.3291 35.3398C14.9671 35.1081 14.557 34.9922 14.0986 34.9922C13.6377 34.9922 13.2262 35.1081 12.8643 35.3398C12.5023 35.569 12.2158 35.9076 12.0049 36.3555C11.7965 36.8008 11.6924 37.349 11.6924 38C11.6924 38.651 11.7965 39.2005 12.0049 39.6484C12.2158 40.0937 12.5023 40.4323 12.8643 40.6641C13.2262 40.8932 13.6377 41.0078 14.0986 41.0078C14.557 41.0078 14.9671 40.8932 15.3291 40.6641C15.6937 40.4323 15.9801 40.0937 16.1885 39.6484C16.3994 39.2005 16.5049 38.651 16.5049 38ZM19.2051 42V34H22.0566C22.6764 34 23.1908 34.1068 23.5996 34.3203C24.0111 34.5339 24.3184 34.8294 24.5215 35.207C24.7246 35.582 24.8262 36.0156 24.8262 36.5078C24.8262 36.9974 24.7233 37.4284 24.5176 37.8008C24.3145 38.1706 24.0072 38.4583 23.5957 38.6641C23.1868 38.8698 22.6725 38.9727 22.0527 38.9727H19.8926V37.9336H21.9434C22.334 37.9336 22.6517 37.8776 22.8965 37.7656C23.1439 37.6536 23.3249 37.4909 23.4395 37.2773C23.554 37.0638 23.6113 36.8073 23.6113 36.5078C23.6113 36.2057 23.5527 35.944 23.4355 35.7227C23.321 35.5013 23.14 35.332 22.8926 35.2148C22.6478 35.0951 22.3262 35.0352 21.9277 35.0352H20.4121V42H19.2051ZM23.1543 38.3906L25.1309 42H23.7559L21.8184 38.3906H23.1543ZM26.2949 42V34H31.3105V35.0391H27.502V37.4766H31.0488V38.5117H27.502V40.9609H31.3574V42H26.2949Z" fill="#184910"/>
</svg>
