<?xml version="1.0" standalone="no"?>
<!DOCTYPE svg PUBLIC "-//W3C//DTD SVG 20010904//EN"
 "http://www.w3.org/TR/2001/REC-SVG-20010904/DTD/svg10.dtd">
<svg version="1.0" xmlns="http://www.w3.org/2000/svg"
 width="300.000000pt" height="298.000000pt" viewBox="0 0 300.000000 298.000000"
 preserveAspectRatio="xMidYMid meet">
<metadata>
Created by potrace 1.10, written by Peter Selinger 2001-2011
</metadata>
<g transform="translate(0.000000,298.000000) scale(0.100000,-0.100000)"
fill="#000000" stroke="none">
<path d="M7 2973 c-4 -3 -7 -674 -7 -1490 l0 -1483 26 0 25 0 -20 26 -21 27 0
1424 c0 1518 -1 1469 45 1487 22 8 2879 8 2900 0 10 -4 23 -21 31 -38 l13 -31
1 43 0 42 -1493 0 c-822 0 -1497 -3 -1500 -7z"/>
<path d="M1286 2525 c-221 -56 -393 -258 -467 -552 -50 -199 -86 -631 -68
-822 22 -238 90 -383 220 -470 l56 -38 -42 -11 c-77 -21 -99 -54 -134 -204
-34 -149 -57 -269 -66 -343 -4 -27 -9 -58 -12 -67 -3 -13 1 -18 16 -18 12 0
21 3 22 8 0 4 2 18 4 32 3 14 10 59 16 100 6 41 19 111 29 155 10 44 26 116
36 160 24 110 54 140 146 150 44 5 73 3 87 -5 19 -10 22 -9 19 7 -2 12 4 19
20 21 17 3 22 -2 22 -18 0 -29 41 -170 50 -170 3 0 23 18 45 40 42 43 55 43
55 2 0 -20 20 -48 71 -102 39 -41 65 -64 58 -50 -7 13 -33 47 -60 75 -32 34
-49 62 -54 88 -10 54 -29 57 -75 12 -39 -38 -39 -38 -44 -14 -30 132 -29 160
10 203 15 16 35 26 52 26 l27 0 -24 -19 c-32 -25 -25 -47 50 -151 135 -188
174 -292 167 -452 -2 -54 0 -98 4 -98 4 0 8 56 8 123 0 98 -4 137 -21 187 -16
49 -18 69 -10 87 6 13 14 22 18 21 18 -3 123 53 123 66 0 31 23 27 60 -9 21
-21 43 -34 49 -31 13 8 51 129 51 163 0 23 3 25 33 19 17 -4 64 -12 102 -18
107 -17 124 -33 151 -136 25 -94 84 -404 84 -439 0 -27 4 -33 21 -33 19 0 20
4 14 58 -7 64 -67 368 -90 451 -18 69 -57 110 -121 126 l-49 12 35 8 c49 10
85 30 132 73 78 71 118 165 118 279 0 197 -100 892 -152 1053 -56 177 -181
335 -299 379 -19 7 -71 31 -117 54 -81 40 -85 41 -200 44 -79 2 -136 -2 -176
-12z m237 -26 c79 -12 187 -63 187 -89 0 -8 7 -24 15 -34 8 -11 15 -34 15 -52
0 -26 -9 -40 -42 -68 -43 -37 -34 -49 14 -18 73 48 89 115 36 153 -42 30 -20
36 33 9 89 -46 191 -166 237 -279 44 -107 67 -223 116 -561 47 -329 59 -451
55 -560 -3 -79 -8 -100 -26 -127 -13 -17 -23 -37 -23 -45 0 -18 -71 -90 -107
-108 -16 -8 -40 -22 -55 -32 -30 -21 -45 -10 -29 21 6 10 15 72 21 137 6 66
18 150 26 189 43 209 42 590 -2 727 -4 14 -2 18 5 14 29 -18 4 168 -39 289
-12 33 -24 70 -27 83 -3 12 -9 22 -14 22 -13 0 -12 -2 26 -113 32 -95 56 -205
54 -252 0 -20 0 -20 -9 0 -5 11 -25 72 -44 135 -38 123 -76 195 -122 227 -34
23 -151 47 -178 37 -17 -7 -18 -4 -12 30 18 95 -39 139 -144 110 -30 -8 -63
-19 -72 -24 -10 -6 -22 -10 -28 -10 -20 0 -143 -60 -137 -67 4 -3 28 4 54 17
91 45 160 67 226 73 64 7 87 -14 87 -77 0 -53 -5 -56 -113 -56 -85 0 -225 -21
-314 -46 -35 -10 -66 -29 -97 -59 -25 -24 -46 -46 -46 -49 0 -7 -60 -96 -65
-96 -2 0 6 23 19 51 13 30 48 77 81 110 32 33 56 62 53 64 -9 10 -129 -119
-145 -155 -22 -51 -63 -201 -63 -232 0 -15 -5 -30 -12 -34 -8 -5 -9 20 -4 102
4 60 9 120 12 134 4 20 3 22 -5 8 -26 -40 -34 -163 -23 -329 15 -202 19 -248
31 -324 6 -33 19 -121 30 -195 44 -298 53 -356 62 -370 8 -15 7 7 -4 75 -3 17
-8 50 -12 75 -4 25 -9 53 -11 63 -9 31 16 18 84 -42 37 -33 91 -75 120 -94 29
-19 50 -37 45 -40 -4 -3 -36 -8 -71 -12 -45 -5 -71 -14 -90 -30 l-27 -23 18
-49 c24 -65 24 -67 7 -68 -16 -1 -60 51 -60 72 0 7 -13 19 -29 28 -18 9 -34
28 -40 47 -29 90 -50 254 -51 391 0 35 -4 57 -11 57 -24 0 13 -378 42 -432 15
-28 3 -35 -22 -12 -31 27 -84 146 -104 234 -50 212 -7 798 74 1033 86 246 247
406 446 442 90 17 111 17 198 4z m209 -361 c104 -62 182 -178 218 -329 26
-111 26 -116 -10 -86 -40 34 -109 47 -246 47 -116 0 -154 -9 -154 -35 0 -23
38 -27 130 -16 127 16 188 13 250 -12 49 -20 55 -26 62 -61 5 -21 6 -41 4 -43
-2 -3 -22 7 -43 21 -98 65 -250 44 -347 -47 -42 -40 -49 -89 -17 -128 l19 -23
108 22 c60 12 133 22 163 22 47 0 57 4 88 35 20 20 38 33 41 30 3 -3 1 -87 -4
-188 l-9 -182 -39 -59 c-61 -95 -183 -208 -268 -250 -97 -48 -169 -60 -261
-46 -123 19 -242 86 -354 201 l-52 54 -26 155 c-14 85 -29 176 -33 201 l-9 46
35 -23 c31 -21 42 -23 107 -17 40 3 109 0 155 -6 80 -12 83 -12 106 10 80 75
-51 192 -216 192 -79 0 -119 -13 -154 -52 -28 -31 -37 -26 -34 21 3 38 7 45
42 65 51 28 139 43 257 43 101 0 126 8 115 36 -6 15 -18 16 -119 11 -125 -7
-225 -33 -264 -69 l-26 -23 7 51 c19 148 128 359 207 399 73 38 249 64 414 62
100 -2 114 -4 157 -29z m102 -5 c54 -56 44 -73 -13 -22 -27 24 -49 47 -50 52
-3 19 30 3 63 -30z m51 -536 c43 -24 54 -52 35 -86 -8 -15 -21 -21 -47 -21
-29 0 -34 3 -25 12 16 16 15 60 -3 84 -13 17 -14 14 -15 -38 0 -31 -4 -59 -8
-62 -4 -2 -35 -8 -69 -11 l-61 -7 -17 32 -17 33 27 -21 c53 -42 139 -18 133
36 -2 19 -13 32 -36 44 -51 25 -50 28 9 28 37 0 66 -7 94 -23z m-148 -7 c25
-38 -15 -74 -48 -44 -24 21 -24 40 -1 53 25 15 36 13 49 -9z m-460 -36 c44
-25 58 -51 51 -95 -2 -19 -9 -23 -28 -22 -14 2 -43 3 -65 3 -77 0 -133 11
-139 27 -9 23 1 28 19 9 21 -20 84 -21 113 0 13 9 22 26 22 40 0 20 -8 29 -40
42 -22 9 -40 21 -40 25 0 14 62 -3 107 -29z m-177 20 c0 -3 -7 -12 -15 -20
-17 -17 -20 -80 -5 -89 21 -13 9 -25 -25 -25 -30 0 -38 5 -52 35 -16 33 -16
36 3 56 25 28 94 60 94 43z m64 -13 c18 -20 13 -46 -10 -55 -34 -13 -62 21
-44 55 13 24 32 24 54 0z m480 -17 c-5 -28 -2 -40 16 -59 l22 -23 -32 -7 c-18
-4 -36 -3 -42 3 -18 18 -12 72 12 97 13 14 25 25 27 25 2 0 1 -16 -3 -36z
m332 -506 c-11 -67 -14 -89 -21 -146 -6 -45 -9 -52 -23 -47 -9 4 -50 10 -90
13 l-73 5 73 71 c40 39 86 88 101 109 15 20 31 37 34 37 3 0 3 -19 -1 -42z
m-56 -235 c0 -18 -21 -146 -25 -151 -1 -1 -25 3 -53 9 -34 7 -53 16 -57 28 -9
30 -42 54 -83 60 -29 5 -38 11 -40 30 -2 13 2 28 10 32 7 5 66 9 131 9 103 0
117 -2 117 -17z m-596 -21 c9 -15 -9 -29 -49 -35 -37 -6 -54 -19 -80 -61 -5
-9 -24 -19 -41 -22 -28 -5 -31 -3 -42 33 -6 21 -12 43 -12 48 -1 6 43 17 97
26 124 21 121 21 127 11z m303 -9 c-1 -69 4 -84 28 -95 14 -6 25 -17 25 -23 0
-26 -79 -132 -125 -168 -27 -21 -57 -49 -66 -64 l-17 -26 -20 40 c-11 21 -50
79 -87 128 l-66 89 26 20 c23 19 32 43 34 88 1 15 11 16 84 12 45 -3 100 -1
122 4 57 14 62 14 62 -5z m93 -63 c10 -5 28 -26 39 -46 17 -29 21 -46 16 -78
-11 -65 -27 -116 -39 -116 -5 0 -25 14 -42 31 -35 34 -60 34 -66 -1 -2 -14
-20 -29 -58 -46 l-55 -25 35 28 c59 46 109 105 135 157 31 61 32 86 5 86 -11
0 -20 5 -20 10 0 13 26 13 50 0z"/>
<path d="M1285 2456 c-66 -17 -133 -47 -118 -53 6 -2 24 2 40 10 42 22 130 38
215 39 61 0 86 -4 129 -25 l54 -25 -75 -1 c-145 -2 -275 -53 -425 -166 -75
-56 -135 -117 -135 -136 0 -7 30 17 68 53 131 125 261 196 410 224 102 18 153
13 183 -17 12 -12 24 -18 27 -14 4 4 -5 17 -20 29 -16 12 -28 27 -28 34 0 6
-19 22 -42 34 -53 27 -205 35 -283 14z"/>
<path d="M1188 2214 c-21 -13 -38 -29 -38 -34 0 -16 19 -11 37 10 10 11 23 20
29 20 7 0 14 7 18 15 7 20 -2 18 -46 -11z"/>
<path d="M2124 1278 c3 -13 9 -80 13 -149 6 -137 -6 -235 -38 -303 -24 -50
-24 -55 -1 -25 25 34 40 82 52 169 15 104 0 330 -22 330 -6 0 -8 -10 -4 -22z"/>
<path d="M2090 1078 c0 -127 -48 -317 -82 -326 -10 -2 -18 -8 -18 -14 0 -11
32 6 47 24 12 16 29 64 49 138 20 74 31 240 16 240 -8 0 -12 -22 -12 -62z"/>
<path d="M1522 1435 c-1 -27 5 -63 14 -80 l14 -30 -6 30 c-3 17 -10 53 -14 80
l-8 50 0 -50z"/>
<path d="M1600 1390 c0 -12 58 -42 72 -38 7 3 -7 14 -30 26 -23 12 -42 17 -42
12z"/>
<path d="M1301 1360 c-24 -17 -37 -30 -28 -30 14 0 91 59 77 60 -3 0 -25 -14
-49 -30z"/>
<path d="M1530 1269 c-34 -19 -73 -20 -127 -3 -14 4 -13 1 6 -15 41 -37 137
-21 155 25 3 8 4 14 3 13 -1 0 -18 -9 -37 -20z"/>
<path d="M1695 1181 c-4 -7 5 -11 22 -11 l28 -1 -28 -15 c-20 -11 -78 -18
-190 -25 -89 -4 -178 -9 -197 -10 -45 -3 -100 10 -100 23 0 6 7 8 15 5 17 -7
30 9 16 18 -6 3 -22 3 -36 -1 -28 -7 -45 -48 -26 -67 8 -8 11 -7 11 6 0 31 28
17 63 -32 47 -65 102 -91 193 -91 123 0 184 32 239 125 26 45 45 58 45 30 0
-8 5 -15 11 -15 6 0 9 14 7 33 -3 28 -7 32 -35 35 -17 2 -34 -2 -38 -7z m-12
-72 c-34 -34 -284 -52 -368 -27 -37 12 -26 13 140 24 99 6 193 12 210 12 21 2
26 -1 18 -9z m-88 -85 c-39 -29 -203 -31 -231 -2 -12 11 6 14 118 14 109 1
128 -1 113 -12z"/>
<path d="M1506 1171 c-12 -5 9 -7 51 -7 39 1 66 4 59 8 -14 10 -85 9 -110 -1z"/>
<path d="M1375 1165 c25 -9 107 -12 94 -4 -8 5 -34 8 -59 8 -25 0 -40 -2 -35
-4z"/>
<path d="M1339 968 c25 -29 97 -58 142 -58 34 0 114 26 146 47 41 27 18 25
-31 -3 -35 -19 -61 -26 -106 -26 -52 -1 -115 15 -130 31 -3 3 -14 13 -25 21
-15 11 -14 8 4 -12z"/>
<path d="M1261 1493 c-6 -20 -8 -39 -5 -42 9 -10 34 31 34 56 0 36 -18 27 -29
-14z"/>
<path d="M990 404 c0 -3 7 -31 16 -62 14 -46 15 -82 10 -199 -7 -134 -6 -143
11 -143 16 0 18 13 21 154 3 149 2 156 -22 205 -24 46 -36 61 -36 45z"/>
<path d="M1964 385 c-31 -47 -39 -99 -32 -196 3 -52 7 -115 7 -141 1 -37 5
-48 17 -48 14 0 15 17 9 153 -7 138 -5 157 13 205 21 55 14 69 -14 27z"/>
<path d="M1352 183 c-2 -29 -7 -33 -54 -49 -65 -21 -121 -21 -172 0 -49 20
-59 13 -14 -10 39 -21 125 -24 183 -6 60 18 67 25 62 63 l-4 34 -1 -32z"/>
<path d="M1622 185 c-2 -43 5 -50 84 -70 69 -17 72 -17 130 2 49 16 59 24 61
44 3 22 2 23 -6 3 -17 -39 -130 -56 -204 -31 -45 16 -54 24 -60 57 -4 23 -4
22 -5 -5z"/>
<path d="M2990 48 c0 -6 -7 -20 -17 -30 -15 -17 -15 -18 5 -18 18 0 22 6 22
30 0 17 -2 30 -5 30 -3 0 -5 -5 -5 -12z"/>
</g>
</svg>
