<svg width="23" height="23" viewBox="0 0 23 23" fill="none" xmlns="http://www.w3.org/2000/svg">
<g clip-path="url(#clip0_74_348)">
<path d="M11.4814 2.87036C10.4289 2.87036 9.56781 3.73146 9.56781 4.78391C9.56781 5.83637 10.4289 6.69746 11.4814 6.69746C12.5338 6.69746 13.3949 5.83637 13.3949 4.78391C13.3949 3.73146 12.5338 2.87036 11.4814 2.87036ZM11.4814 16.2652C10.4289 16.2652 9.56781 17.1263 9.56781 18.1788C9.56781 19.2312 10.4289 20.0923 11.4814 20.0923C12.5338 20.0923 13.3949 19.2312 13.3949 18.1788C13.3949 17.1263 12.5338 16.2652 11.4814 16.2652ZM11.4814 9.56779C10.4289 9.56779 9.56781 10.4289 9.56781 11.4813C9.56781 12.5338 10.4289 13.3949 11.4814 13.3949C12.5338 13.3949 13.3949 12.5338 13.3949 11.4813C13.3949 10.4289 12.5338 9.56779 11.4814 9.56779Z" fill="black"/>
</g>
<defs>
<clipPath id="clip0_74_348">
<rect width="22.9626" height="22.9626" fill="white"/>
</clipPath>
</defs>
</svg>
