<svg width="119" height="36" viewBox="0 0 119 36" fill="none" xmlns="http://www.w3.org/2000/svg">
<path d="M19.8125 26.0703C19.8125 25.4609 19.7188 24.9141 19.5312 24.4297C19.3594 23.9297 19.0312 23.4766 18.5469 23.0703C18.0625 22.6484 17.3828 22.2344 16.5078 21.8281C15.6328 21.4219 14.5 21 13.1094 20.5625C11.5625 20.0625 10.0938 19.5 8.70312 18.875C7.32812 18.25 6.10938 17.5234 5.04688 16.6953C4 15.8516 3.17188 14.875 2.5625 13.7656C1.96875 12.6562 1.67188 11.3672 1.67188 9.89844C1.67188 8.47656 1.98438 7.1875 2.60938 6.03125C3.23438 4.85938 4.10938 3.85937 5.23438 3.03125C6.35938 2.1875 7.6875 1.53906 9.21875 1.08594C10.7656 0.632813 12.4609 0.40625 14.3047 0.40625C16.8203 0.40625 19.0156 0.859375 20.8906 1.76562C22.7656 2.67188 24.2188 3.91406 25.25 5.49219C26.2969 7.07031 26.8203 8.875 26.8203 10.9062H19.8359C19.8359 9.90625 19.625 9.03125 19.2031 8.28125C18.7969 7.51562 18.1719 6.91406 17.3281 6.47656C16.5 6.03906 15.4531 5.82031 14.1875 5.82031C12.9688 5.82031 11.9531 6.00781 11.1406 6.38281C10.3281 6.74219 9.71875 7.23438 9.3125 7.85938C8.90625 8.46875 8.70312 9.15625 8.70312 9.92188C8.70312 10.5 8.84375 11.0234 9.125 11.4922C9.42188 11.9609 9.85938 12.3984 10.4375 12.8047C11.0156 13.2109 11.7266 13.5938 12.5703 13.9531C13.4141 14.3125 14.3906 14.6641 15.5 15.0078C17.3594 15.5703 18.9922 16.2031 20.3984 16.9062C21.8203 17.6094 23.0078 18.3984 23.9609 19.2734C24.9141 20.1484 25.6328 21.1406 26.1172 22.25C26.6016 23.3594 26.8438 24.6172 26.8438 26.0234C26.8438 27.5078 26.5547 28.8359 25.9766 30.0078C25.3984 31.1797 24.5625 32.1719 23.4688 32.9844C22.375 33.7969 21.0703 34.4141 19.5547 34.8359C18.0391 35.2578 16.3438 35.4688 14.4688 35.4688C12.7812 35.4688 11.1172 35.25 9.47656 34.8125C7.83594 34.3594 6.34375 33.6797 5 32.7734C3.67188 31.8672 2.60938 30.7109 1.8125 29.3047C1.01562 27.8984 0.617188 26.2344 0.617188 24.3125H7.67188C7.67188 25.375 7.83594 26.2734 8.16406 27.0078C8.49219 27.7422 8.95312 28.3359 9.54688 28.7891C10.1562 29.2422 10.875 29.5703 11.7031 29.7734C12.5469 29.9766 13.4688 30.0781 14.4688 30.0781C15.6875 30.0781 16.6875 29.9062 17.4688 29.5625C18.2656 29.2188 18.8516 28.7422 19.2266 28.1328C19.6172 27.5234 19.8125 26.8359 19.8125 26.0703ZM43.625 9.64062V14.4219H28.8594V9.64062H43.625ZM32.5156 3.38281H39.2656V27.3594C39.2656 28.0938 39.3594 28.6562 39.5469 29.0469C39.75 29.4375 40.0469 29.7109 40.4375 29.8672C40.8281 30.0078 41.3203 30.0781 41.9141 30.0781C42.3359 30.0781 42.7109 30.0625 43.0391 30.0312C43.3828 29.9844 43.6719 29.9375 43.9062 29.8906L43.9297 34.8594C43.3516 35.0469 42.7266 35.1953 42.0547 35.3047C41.3828 35.4141 40.6406 35.4688 39.8281 35.4688C38.3438 35.4688 37.0469 35.2266 35.9375 34.7422C34.8438 34.2422 34 33.4453 33.4062 32.3516C32.8125 31.2578 32.5156 29.8203 32.5156 28.0391V3.38281ZM61.1562 29.2812V17.9844C61.1562 17.1719 61.0234 16.4766 60.7578 15.8984C60.4922 15.3047 60.0781 14.8438 59.5156 14.5156C58.9688 14.1875 58.2578 14.0234 57.3828 14.0234C56.6328 14.0234 55.9844 14.1562 55.4375 14.4219C54.8906 14.6719 54.4688 15.0391 54.1719 15.5234C53.875 15.9922 53.7266 16.5469 53.7266 17.1875H46.9766C46.9766 16.1094 47.2266 15.0859 47.7266 14.1172C48.2266 13.1484 48.9531 12.2969 49.9062 11.5625C50.8594 10.8125 51.9922 10.2266 53.3047 9.80469C54.6328 9.38281 56.1172 9.17188 57.7578 9.17188C59.7266 9.17188 61.4766 9.5 63.0078 10.1562C64.5391 10.8125 65.7422 11.7969 66.6172 13.1094C67.5078 14.4219 67.9531 16.0625 67.9531 18.0312V28.8828C67.9531 30.2734 68.0391 31.4141 68.2109 32.3047C68.3828 33.1797 68.6328 33.9453 68.9609 34.6016V35H62.1406C61.8125 34.3125 61.5625 33.4531 61.3906 32.4219C61.2344 31.375 61.1562 30.3281 61.1562 29.2812ZM62.0469 19.5547L62.0938 23.375H58.3203C57.4297 23.375 56.6562 23.4766 56 23.6797C55.3438 23.8828 54.8047 24.1719 54.3828 24.5469C53.9609 24.9062 53.6484 25.3281 53.4453 25.8125C53.2578 26.2969 53.1641 26.8281 53.1641 27.4062C53.1641 27.9844 53.2969 28.5078 53.5625 28.9766C53.8281 29.4297 54.2109 29.7891 54.7109 30.0547C55.2109 30.3047 55.7969 30.4297 56.4688 30.4297C57.4844 30.4297 58.3672 30.2266 59.1172 29.8203C59.8672 29.4141 60.4453 28.9141 60.8516 28.3203C61.2734 27.7266 61.4922 27.1641 61.5078 26.6328L63.2891 29.4922C63.0391 30.1328 62.6953 30.7969 62.2578 31.4844C61.8359 32.1719 61.2969 32.8203 60.6406 33.4297C59.9844 34.0234 59.1953 34.5156 58.2734 34.9062C57.3516 35.2812 56.2578 35.4688 54.9922 35.4688C53.3828 35.4688 51.9219 35.1484 50.6094 34.5078C49.3125 33.8516 48.2812 32.9531 47.5156 31.8125C46.7656 30.6562 46.3906 29.3438 46.3906 27.875C46.3906 26.5469 46.6406 25.3672 47.1406 24.3359C47.6406 23.3047 48.375 22.4375 49.3438 21.7344C50.3281 21.0156 51.5547 20.4766 53.0234 20.1172C54.4922 19.7422 56.1953 19.5547 58.1328 19.5547H62.0469ZM79.9062 15.1719V35H73.1562V9.64062H79.5078L79.9062 15.1719ZM87.5469 9.47656L87.4297 15.7344C87.1016 15.6875 86.7031 15.6484 86.2344 15.6172C85.7812 15.5703 85.3672 15.5469 84.9922 15.5469C84.0391 15.5469 83.2109 15.6719 82.5078 15.9219C81.8203 16.1562 81.2422 16.5078 80.7734 16.9766C80.3203 17.4453 79.9766 18.0156 79.7422 18.6875C79.5234 19.3594 79.3984 20.125 79.3672 20.9844L78.0078 20.5625C78.0078 18.9219 78.1719 17.4141 78.5 16.0391C78.8281 14.6484 79.3047 13.4375 79.9297 12.4062C80.5703 11.375 81.3516 10.5781 82.2734 10.0156C83.1953 9.45312 84.25 9.17188 85.4375 9.17188C85.8125 9.17188 86.1953 9.20312 86.5859 9.26562C86.9766 9.3125 87.2969 9.38281 87.5469 9.47656ZM96.9453 0.875L103.367 12.7812L109.789 0.875H117.828L107.914 17.7969L118.086 35H109.977L103.367 22.8594L96.7578 35H88.6016L98.7969 17.7969L88.8594 0.875H96.9453Z" fill="black"/>
<path d="M19.5312 24.4297L17.6399 25.0798L17.6523 25.116L17.6661 25.1517L19.5312 24.4297ZM18.5469 23.0703L17.2333 24.5785L17.2474 24.5907L17.2617 24.6027L18.5469 23.0703ZM13.1094 20.5625L12.4942 22.4656L12.5017 22.468L12.5092 22.4703L13.1094 20.5625ZM8.70312 18.875L7.87551 20.6957L7.88325 20.6992L8.70312 18.875ZM5.04688 16.6953L3.79182 18.2525L3.80452 18.2627L3.81739 18.2728L5.04688 16.6953ZM2.5625 13.7656L0.799171 14.7094L0.804307 14.719L0.809547 14.7285L2.5625 13.7656ZM2.60938 6.03125L4.36882 6.9823L4.37408 6.97243L2.60938 6.03125ZM5.23438 3.03125L6.42001 4.64192L6.42722 4.63662L6.43437 4.63125L5.23438 3.03125ZM9.21875 1.08594L8.65652 -0.833417L8.65124 -0.831856L9.21875 1.08594ZM25.25 5.49219L23.5757 6.58627L23.5834 6.59778L25.25 5.49219ZM26.8203 10.9062V12.9062H28.8203V10.9062H26.8203ZM19.8359 10.9062H17.8359V12.9062H19.8359V10.9062ZM19.2031 8.28125L17.4364 9.21868L17.4479 9.24037L17.46 9.26177L19.2031 8.28125ZM17.3281 6.47656L16.3939 8.24495L16.4007 8.24854L16.4075 8.25207L17.3281 6.47656ZM11.1406 6.38281L11.9496 8.21188L11.9642 8.20542L11.9787 8.19873L11.1406 6.38281ZM9.3125 7.85938L10.9766 8.96877L10.9831 8.9591L10.9894 8.94935L9.3125 7.85938ZM9.125 11.4922L7.41001 12.5212L7.42244 12.5419L7.43536 12.5623L9.125 11.4922ZM15.5 15.0078L14.908 16.9182L14.9209 16.9221L15.5 15.0078ZM20.3984 16.9062L19.504 18.6951L19.5119 18.699L20.3984 16.9062ZM9.47656 34.8125L8.94412 36.7403L8.95267 36.7427L8.96124 36.745L9.47656 34.8125ZM5 32.7734L3.87271 34.4255L3.88172 34.4316L5 32.7734ZM0.617188 24.3125V22.3125H-1.38281V24.3125H0.617188ZM7.67188 24.3125H9.67188V22.3125H7.67188V24.3125ZM9.54688 28.7891L8.33353 30.379L8.34345 30.3865L8.35347 30.394L9.54688 28.7891ZM11.7031 29.7734L11.2267 31.7159L11.235 31.7179L11.7031 29.7734ZM17.4688 29.5625L16.6766 27.7261L16.6699 27.729L16.6633 27.7319L17.4688 29.5625ZM19.2266 28.1328L17.5428 27.0535L17.5329 27.069L17.5232 27.0846L19.2266 28.1328ZM21.8125 26.0703C21.8125 25.256 21.687 24.4585 21.3964 23.7077L17.6661 25.1517C17.7505 25.3696 17.8125 25.6659 17.8125 26.0703H21.8125ZM21.4226 23.7795C21.1113 22.874 20.5401 22.1317 19.8321 21.5379L17.2617 24.6027C17.5224 24.8214 17.6074 24.9854 17.6399 25.0798L21.4226 23.7795ZM19.8604 21.5621C19.1821 20.9714 18.3193 20.4641 17.35 20.0141L15.6656 23.6421C16.4463 24.0046 16.9429 24.3255 17.2333 24.5785L19.8604 21.5621ZM17.35 20.0141C16.3677 19.558 15.1457 19.1065 13.7096 18.6547L12.5092 22.4703C13.8543 22.8935 14.898 23.2857 15.6656 23.6421L17.35 20.0141ZM13.7245 18.6594C12.2427 18.1805 10.8426 17.6439 9.523 17.0508L7.88325 20.6992C9.34485 21.3561 10.8823 21.9445 12.4942 22.4656L13.7245 18.6594ZM9.53073 17.0543C8.28179 16.4866 7.20102 15.8385 6.27636 15.1179L3.81739 18.2728C5.01773 19.2083 6.37446 20.0134 7.87552 20.6957L9.53073 17.0543ZM6.30193 15.1381C5.44537 14.4478 4.79152 13.6694 4.31545 12.8027L0.809547 14.7285C1.55223 16.0806 2.55463 17.2554 3.79182 18.2525L6.30193 15.1381ZM4.32583 12.8219C3.91159 12.0479 3.67188 11.0932 3.67188 9.89844H-0.328125C-0.328125 11.6412 0.0259095 13.2646 0.799171 14.7094L4.32583 12.8219ZM3.67188 9.89844C3.67188 8.78075 3.91444 7.82283 4.36879 6.98228L0.849962 5.08022C0.0543121 6.55217 -0.328125 8.17237 -0.328125 9.89844H3.67188ZM4.37408 6.97243C4.85121 6.07782 5.52284 5.30234 6.42001 4.64192L4.04874 1.42058C2.69591 2.41641 1.61754 3.64093 0.844669 5.09007L4.37408 6.97243ZM6.43437 4.63125C7.34516 3.94816 8.45247 3.39843 9.78626 3.00373L8.65124 -0.831856C6.92253 -0.3203 5.37359 0.426842 4.03438 1.43125L6.43437 4.63125ZM9.78098 3.00528C11.1212 2.6127 12.6244 2.40625 14.3047 2.40625V-1.59375C12.2974 -1.59375 10.4101 -1.34707 8.65652 -0.833409L9.78098 3.00528ZM14.3047 2.40625C16.5807 2.40625 18.4673 2.81571 20.0203 3.56632L21.761 -0.0350733C19.564 -1.09696 17.06 -1.59375 14.3047 -1.59375V2.40625ZM20.0203 3.56632C21.6034 4.33148 22.7637 5.34352 23.5758 6.58624L26.9242 4.39814C25.6738 2.4846 23.9279 1.01227 21.761 -0.0350733L20.0203 3.56632ZM23.5834 6.59778C24.3969 7.82409 24.8203 9.23837 24.8203 10.9062H28.8203C28.8203 8.51163 28.1969 6.31654 26.9166 4.3866L23.5834 6.59778ZM26.8203 8.90625H19.8359V12.9062H26.8203V8.90625ZM21.8359 10.9062C21.8359 9.61893 21.5621 8.3955 20.9463 7.30073L17.46 9.26177C17.6879 9.667 17.8359 10.1936 17.8359 10.9062H21.8359ZM20.9698 7.34382C20.3548 6.18478 19.4166 5.30663 18.2488 4.70105L16.4075 8.25207C16.9271 8.5215 17.2389 8.84647 17.4364 9.21868L20.9698 7.34382ZM18.2624 4.70818C17.0631 4.07461 15.6695 3.82031 14.1875 3.82031V7.82031C15.2368 7.82031 15.9369 8.00351 16.3939 8.24495L18.2624 4.70818ZM14.1875 3.82031C12.7782 3.82031 11.4548 4.03508 10.3025 4.56689L11.9787 8.19873C12.4515 7.98055 13.1593 7.82031 14.1875 7.82031V3.82031ZM10.3316 4.55374C9.23333 5.03952 8.29105 5.76104 7.63561 6.7694L10.9894 8.94935C11.1465 8.70771 11.4229 8.44485 11.9496 8.21188L10.3316 4.55374ZM7.6484 6.74997C7.01286 7.70329 6.70312 8.78033 6.70312 9.92188H10.7031C10.7031 9.53217 10.7996 9.23421 10.9766 8.96877L7.6484 6.74997ZM6.70312 9.92188C6.70312 10.8407 6.93139 11.7235 7.41001 12.5212L10.84 10.4632C10.7561 10.3234 10.7031 10.1593 10.7031 9.92188H6.70312ZM7.43536 12.5623C7.90591 13.3053 8.55061 13.9232 9.28761 14.4411L11.5874 11.1683C11.1681 10.8737 10.9378 10.6166 10.8146 10.4221L7.43536 12.5623ZM9.28761 14.4411C10.0083 14.9475 10.8499 15.3942 11.7866 15.7932L13.354 12.1131C12.6033 11.7933 12.0229 11.4743 11.5874 11.1683L9.28761 14.4411ZM11.7866 15.7932C12.7069 16.1852 13.7498 16.5593 14.908 16.9182L16.092 13.0974C15.0314 12.7688 14.1212 12.4398 13.354 12.1131L11.7866 15.7932ZM14.9209 16.9221C16.696 17.4591 18.2195 18.0528 19.504 18.6951L21.2929 15.1174C19.7649 14.3534 18.0228 13.6815 16.0791 13.0935L14.9209 16.9221ZM19.5119 18.699C20.8008 19.3364 21.822 20.0248 22.6084 20.7467L25.3135 17.8001C24.1936 16.7721 22.8398 15.8823 21.285 15.1135L19.5119 18.699ZM22.6084 20.7467C23.3706 21.4465 23.9189 22.2135 24.2843 23.0503L27.9501 21.4497C27.3467 20.0677 26.4575 18.8504 25.3135 17.8001L22.6084 20.7467ZM24.2843 23.0503C24.6421 23.8697 24.8438 24.8485 24.8438 26.0234H28.8438C28.8438 24.3859 28.5611 22.849 27.9501 21.4497L24.2843 23.0503ZM24.8438 26.0234C24.8438 27.2429 24.6079 28.2616 24.183 29.123L27.7702 30.8927C28.5015 29.4103 28.8438 27.7727 28.8438 26.0234H24.8438ZM24.183 29.123C23.7512 29.9981 23.1264 30.7472 22.2761 31.3789L24.6614 34.5899C25.9986 33.5965 27.0457 32.3613 27.7702 30.8927L24.183 29.123ZM22.2761 31.3789C21.4075 32.0241 20.3334 32.5431 19.0184 32.9092L20.091 36.7627C21.8072 36.285 23.3425 35.5696 24.6614 34.5899L22.2761 31.3789ZM19.0184 32.9092C17.707 33.2742 16.1961 33.4688 14.4688 33.4688V37.4688C16.4914 37.4688 18.3711 37.2414 20.091 36.7627L19.0184 32.9092ZM14.4688 33.4688C12.9563 33.4688 11.4655 33.273 9.99189 32.88L8.96124 36.745C10.7689 37.227 12.6062 37.4688 14.4688 37.4688V33.4688ZM10.009 32.8847C8.56643 32.4863 7.27379 31.8946 6.11828 31.1153L3.88172 34.4316C5.41371 35.4648 7.10544 36.2325 8.94412 36.7403L10.009 32.8847ZM6.12728 31.1214C5.05299 30.3884 4.19956 29.4605 3.55254 28.3187L0.0724556 30.2907C1.01919 31.9614 2.29076 33.346 3.87272 34.4255L6.12728 31.1214ZM3.55254 28.3187C2.95567 27.2654 2.61719 25.9542 2.61719 24.3125H-1.38281C-1.38281 26.5145 -0.924422 28.5315 0.0724556 30.2907L3.55254 28.3187ZM0.617188 26.3125H7.67188V22.3125H0.617188V26.3125ZM5.67188 24.3125C5.67188 25.5702 5.8647 26.7643 6.33805 27.8237L9.99008 26.1919C9.80717 25.7826 9.67188 25.1798 9.67188 24.3125H5.67188ZM6.33805 27.8237C6.79173 28.8391 7.45384 29.7076 8.33353 30.379L10.7602 27.1992C10.4524 26.9642 10.1926 26.6453 9.99008 26.1919L6.33805 27.8237ZM8.35347 30.394C9.20173 31.0247 10.1712 31.457 11.2267 31.7159L12.1796 27.831C11.5788 27.6836 11.1108 27.4596 10.7403 27.1841L8.35347 30.394ZM11.235 31.7179C12.2532 31.963 13.3344 32.0781 14.4688 32.0781V28.0781C13.6031 28.0781 12.8405 27.9901 12.1712 27.829L11.235 31.7179ZM14.4688 32.0781C15.855 32.0781 17.1549 31.8856 18.2742 31.3931L16.6633 27.7319C16.2201 27.9269 15.52 28.0781 14.4688 28.0781V32.0781ZM18.2609 31.3989C19.3536 30.9276 20.297 30.2094 20.9299 29.181L17.5232 27.0846C17.4061 27.275 17.1777 27.5099 16.6766 27.7261L18.2609 31.3989ZM20.9103 29.2121C21.5196 28.2617 21.8125 27.1954 21.8125 26.0703H17.8125C17.8125 26.4765 17.7148 26.7852 17.5428 27.0535L20.9103 29.2121ZM43.625 9.64062H45.625V7.64062H43.625V9.64062ZM43.625 14.4219V16.4219H45.625V14.4219H43.625ZM28.8594 14.4219H26.8594V16.4219H28.8594V14.4219ZM28.8594 9.64062V7.64062H26.8594V9.64062H28.8594ZM32.5156 3.38281V1.38281H30.5156V3.38281H32.5156ZM39.2656 3.38281H41.2656V1.38281H39.2656V3.38281ZM39.5469 29.0469L37.7438 29.9123L37.7577 29.9412L37.7724 29.9696L39.5469 29.0469ZM40.4375 29.8672L39.6947 31.7241L39.7272 31.7371L39.7601 31.749L40.4375 29.8672ZM43.0391 30.0312L43.2287 32.0222L43.2691 32.0184L43.3093 32.0129L43.0391 30.0312ZM43.9062 29.8906L45.9062 29.8812L45.8948 27.4533L43.514 27.9295L43.9062 29.8906ZM43.9297 34.8594L44.5467 36.7618L45.9366 36.3111L45.9297 34.8499L43.9297 34.8594ZM35.9375 34.7422L35.106 36.5611L35.1215 36.5682L35.1372 36.5751L35.9375 34.7422ZM41.625 9.64062V14.4219H45.625V9.64062H41.625ZM43.625 12.4219H28.8594V16.4219H43.625V12.4219ZM30.8594 14.4219V9.64062H26.8594V14.4219H30.8594ZM28.8594 11.6406H43.625V7.64062H28.8594V11.6406ZM32.5156 5.38281H39.2656V1.38281H32.5156V5.38281ZM37.2656 3.38281V27.3594H41.2656V3.38281H37.2656ZM37.2656 27.3594C37.2656 28.2125 37.3663 29.1258 37.7438 29.9123L41.3499 28.1814C41.3588 28.2 41.3338 28.1535 41.3087 28.0032C41.2843 27.8564 41.2656 27.646 41.2656 27.3594H37.2656ZM37.7724 29.9696C38.1853 30.7636 38.8374 31.3812 39.6947 31.7241L41.1803 28.0102C41.2011 28.0186 41.2388 28.0388 41.2768 28.0738C41.3138 28.1079 41.3256 28.1324 41.3213 28.1242L37.7724 29.9696ZM39.7601 31.749C40.4397 31.9936 41.1803 32.0781 41.9141 32.0781V28.0781C41.4603 28.0781 41.2166 28.022 41.1149 27.9854L39.7601 31.749ZM41.9141 32.0781C42.3827 32.0781 42.823 32.0609 43.2287 32.0222L42.8494 28.0403C42.5989 28.0641 42.2892 28.0781 41.9141 28.0781V32.0781ZM43.3093 32.0129C43.6775 31.9627 44.0101 31.9095 44.2985 31.8518L43.514 27.9295C43.3336 27.9655 43.0882 28.006 42.7688 28.0496L43.3093 32.0129ZM41.9063 29.9001L41.9297 34.8688L45.9297 34.8499L45.9062 29.8812L41.9063 29.9001ZM43.3127 32.9569C42.8418 33.1096 42.3167 33.2357 41.7333 33.3307L42.376 37.2787C43.1364 37.1549 43.8613 36.9841 44.5467 36.7618L43.3127 32.9569ZM41.7333 33.3307C41.1857 33.4198 40.5529 33.4688 39.8281 33.4688V37.4688C40.7283 37.4688 41.5799 37.4083 42.376 37.2787L41.7333 33.3307ZM39.8281 33.4688C38.5584 33.4688 37.5445 33.2615 36.7378 32.9093L35.1372 36.5751C36.5493 37.1916 38.1291 37.4688 39.8281 37.4688V33.4688ZM36.769 32.9232C36.0841 32.6101 35.5586 32.1244 35.164 31.3974L31.6485 33.3057C32.4414 34.7663 33.6034 35.8743 35.106 36.5611L36.769 32.9232ZM35.164 31.3974C34.783 30.6957 34.5156 29.6218 34.5156 28.0391H30.5156C30.5156 30.0188 30.842 31.8199 31.6485 33.3057L35.164 31.3974ZM34.5156 28.0391V3.38281H30.5156V28.0391H34.5156ZM60.7578 15.8984L58.9322 16.7152L58.9363 16.7243L58.9405 16.7334L60.7578 15.8984ZM59.5156 14.5156L58.4866 16.2306L58.4972 16.237L58.5079 16.2432L59.5156 14.5156ZM55.4375 14.4219L56.269 16.2408L56.2903 16.2311L56.3113 16.2209L55.4375 14.4219ZM54.1719 15.5234L55.8615 16.5935L55.8694 16.5811L55.8771 16.5686L54.1719 15.5234ZM53.7266 17.1875V19.1875H55.7266V17.1875H53.7266ZM46.9766 17.1875H44.9766V19.1875H46.9766V17.1875ZM49.9062 11.5625L51.1269 13.1468L51.135 13.1406L51.143 13.1342L49.9062 11.5625ZM53.3047 9.80469L52.6992 7.89853L52.6927 7.90063L53.3047 9.80469ZM66.6172 13.1094L64.9531 14.2188L64.9576 14.2256L64.9622 14.2324L66.6172 13.1094ZM68.2109 32.3047L66.2472 32.6837L66.2484 32.6902L68.2109 32.3047ZM68.9609 34.6016H70.9609V34.1294L70.7498 33.7071L68.9609 34.6016ZM68.9609 35V37H70.9609V35H68.9609ZM62.1406 35L60.3357 35.8615L60.8791 37H62.1406V35ZM61.3906 32.4219L59.4125 32.7171L59.415 32.7339L59.4178 32.7507L61.3906 32.4219ZM62.0469 19.5547L64.0467 19.5301L64.0225 17.5547H62.0469V19.5547ZM62.0938 23.375V25.375H64.1184L64.0936 23.3505L62.0938 23.375ZM54.3828 24.5469L55.6797 26.0694L55.6958 26.0557L55.7115 26.0417L54.3828 24.5469ZM53.4453 25.8125L51.6009 25.039L51.5902 25.0646L51.5802 25.0905L53.4453 25.8125ZM53.5625 28.9766L51.8225 29.9626L51.8297 29.9753L51.8371 29.988L53.5625 28.9766ZM54.7109 30.0547L53.7726 31.8209L53.7944 31.8325L53.8165 31.8435L54.7109 30.0547ZM60.8516 28.3203L59.2212 27.1619L59.2109 27.1763L59.2009 27.1909L60.8516 28.3203ZM61.5078 26.6328L63.2054 25.5753L59.7034 19.9537L59.5087 26.574L61.5078 26.6328ZM63.2891 29.4922L65.1522 30.2193L65.5166 29.2855L64.9866 28.4347L63.2891 29.4922ZM62.2578 31.4844L60.5705 30.4106L60.5617 30.4244L60.5532 30.4383L62.2578 31.4844ZM60.6406 33.4297L61.9825 34.9128L61.992 34.9041L62.0015 34.8953L60.6406 33.4297ZM58.2734 34.9062L59.027 36.7588L59.0404 36.7534L59.0537 36.7478L58.2734 34.9062ZM50.6094 34.5078L49.7064 36.2923L49.7192 36.2988L49.7321 36.3051L50.6094 34.5078ZM47.5156 31.8125L45.8377 32.9009L45.8463 32.9141L45.855 32.9271L47.5156 31.8125ZM49.3438 21.7344L50.5185 23.353L50.5231 23.3496L49.3438 21.7344ZM53.0234 20.1172L53.4988 22.0599L53.5085 22.0575L53.5182 22.055L53.0234 20.1172ZM63.1562 29.2812V17.9844H59.1562V29.2812H63.1562ZM63.1562 17.9844C63.1562 16.9607 62.9896 15.9655 62.5752 15.0634L58.9405 16.7334C59.0573 16.9877 59.1562 17.3831 59.1562 17.9844H63.1562ZM62.5835 15.0817C62.1469 14.1059 61.4465 13.3266 60.5234 12.7881L58.5079 16.2432C58.7097 16.3609 58.8375 16.5035 58.9322 16.7152L62.5835 15.0817ZM60.5446 12.8006C59.592 12.2291 58.4908 12.0234 57.3828 12.0234V16.0234C58.0248 16.0234 58.3455 16.1459 58.4866 16.2306L60.5446 12.8006ZM57.3828 12.0234C56.3993 12.0234 55.439 12.1977 54.5637 12.6229L56.3113 16.2209C56.5298 16.1148 56.8663 16.0234 57.3828 16.0234V12.0234ZM54.606 12.6029C53.7197 13.0081 52.9838 13.6346 52.4667 14.4783L55.8771 16.5686C55.9537 16.4435 56.0616 16.3357 56.269 16.2408L54.606 12.6029ZM52.4822 14.4533C51.9528 15.2892 51.7266 16.2278 51.7266 17.1875H55.7266C55.7266 16.8659 55.7972 16.6951 55.8615 16.5935L52.4822 14.4533ZM53.7266 15.1875H46.9766V19.1875H53.7266V15.1875ZM48.9766 17.1875C48.9766 16.4322 49.1485 15.7229 49.5038 15.0345L45.9493 13.1999C45.3046 14.449 44.9766 15.7865 44.9766 17.1875H48.9766ZM49.5038 15.0345C49.856 14.3521 50.3816 13.721 51.1269 13.1468L48.6856 9.97822C47.5246 10.8727 46.5971 11.9448 45.9493 13.1999L49.5038 15.0345ZM51.143 13.1342C51.8856 12.5499 52.7999 12.0677 53.9167 11.7087L52.6927 7.90063C51.1844 8.38542 49.8331 9.07508 48.6695 9.99076L51.143 13.1342ZM53.9102 11.7108C55.0113 11.361 56.2872 11.1719 57.7578 11.1719V7.17188C55.9472 7.17188 54.2543 7.40458 52.6992 7.89854L53.9102 11.7108ZM57.7578 11.1719C59.5042 11.1719 60.9787 11.4626 62.22 11.9945L63.7957 8.31796C61.9744 7.53745 59.9489 7.17188 57.7578 7.17188V11.1719ZM62.22 11.9945C63.4156 12.507 64.3056 13.2476 64.9531 14.2188L68.2813 12C67.1787 10.3461 65.6625 9.11803 63.7957 8.31796L62.22 11.9945ZM64.9622 14.2324C65.579 15.1413 65.9531 16.3658 65.9531 18.0312H69.9531C69.9531 15.7592 69.4366 13.7024 68.2721 11.9864L64.9622 14.2324ZM65.9531 18.0312V28.8828H69.9531V18.0312H65.9531ZM65.9531 28.8828C65.9531 30.3411 66.0421 31.6208 66.2472 32.6837L70.1747 31.9257C70.0361 31.2073 69.9531 30.2058 69.9531 28.8828H65.9531ZM66.2484 32.6902C66.4478 33.7054 66.7483 34.6485 67.1721 35.496L70.7498 33.7071C70.5173 33.2421 70.3178 32.654 70.1734 31.9192L66.2484 32.6902ZM66.9609 34.6016V35H70.9609V34.6016H66.9609ZM68.9609 33H62.1406V37H68.9609V33ZM63.9456 34.1385C63.7217 33.6694 63.5151 33.0032 63.3634 32.0931L59.4178 32.7507C59.6099 33.9031 59.9033 34.9556 60.3357 35.8615L63.9456 34.1385ZM63.3687 32.1266C63.2269 31.1764 63.1562 30.2282 63.1562 29.2812H59.1562C59.1562 30.428 59.2419 31.5736 59.4125 32.7171L63.3687 32.1266ZM60.047 19.5792L60.0939 23.3995L64.0936 23.3505L64.0467 19.5301L60.047 19.5792ZM62.0938 21.375H58.3203V25.375H62.0938V21.375ZM58.3203 21.375C57.2852 21.375 56.3034 21.4921 55.4086 21.7691L56.5914 25.5903C57.0091 25.461 57.5741 25.375 58.3203 25.375V21.375ZM55.4086 21.7691C54.5377 22.0387 53.7304 22.4509 53.0541 23.0521L55.7115 26.0417C55.879 25.8928 56.1498 25.7269 56.5914 25.5903L55.4086 21.7691ZM53.0859 23.0244C52.4389 23.5756 51.932 24.2496 51.6009 25.039L55.2897 26.586C55.3649 26.4067 55.483 26.2369 55.6797 26.0694L53.0859 23.0244ZM51.5802 25.0905C51.294 25.8298 51.1641 26.609 51.1641 27.4062H55.1641C55.1641 27.0472 55.2216 26.764 55.3104 26.5345L51.5802 25.0905ZM51.1641 27.4062C51.1641 28.3039 51.374 29.1713 51.8225 29.9626L55.3025 27.9905C55.2197 27.8444 55.1641 27.6648 55.1641 27.4062H51.1641ZM51.8371 29.988C52.3047 30.7857 52.9719 31.3955 53.7726 31.8209L55.6492 28.2885C55.45 28.1826 55.3515 28.0737 55.2879 27.9651L51.8371 29.988ZM53.8165 31.8435C54.6448 32.2577 55.5484 32.4297 56.4688 32.4297V28.4297C56.0454 28.4297 55.7771 28.3517 55.6054 28.2658L53.8165 31.8435ZM56.4688 32.4297C57.7537 32.4297 58.9762 32.1712 60.0698 31.5789L58.1646 28.0617C57.7582 28.2819 57.215 28.4297 56.4688 28.4297V32.4297ZM60.0698 31.5789C61.0475 31.0493 61.8861 30.3501 62.5022 29.4497L59.2009 27.1909C59.0045 27.478 58.6869 27.7788 58.1646 28.0617L60.0698 31.5789ZM62.4819 29.4787C63.0503 28.6787 63.4761 27.7392 63.507 26.6916L59.5087 26.574C59.5082 26.5889 59.4965 26.7744 59.2212 27.1619L62.4819 29.4787ZM59.8103 27.6903L61.5915 30.5497L64.9866 28.4347L63.2054 25.5753L59.8103 27.6903ZM61.4259 28.7651C61.2308 29.265 60.9507 29.8132 60.5705 30.4106L63.9451 32.5581C64.44 31.7805 64.8473 31.0006 65.1522 30.2193L61.4259 28.7651ZM60.5532 30.4383C60.2361 30.9551 59.8173 31.4649 59.2797 31.9641L62.0015 34.8953C62.7764 34.1757 63.4358 33.3887 63.9625 32.5304L60.5532 30.4383ZM59.2988 31.9466C58.8286 32.372 58.2358 32.75 57.4931 33.0647L59.0537 36.7478C60.1548 36.2812 61.1402 35.6748 61.9825 34.9128L59.2988 31.9466ZM57.5198 33.0537C56.8926 33.3088 56.0668 33.4688 54.9922 33.4688V37.4688C56.4488 37.4688 57.8105 37.2537 59.027 36.7588L57.5198 33.0537ZM54.9922 33.4688C53.6554 33.4688 52.499 33.2046 51.4866 32.7105L49.7321 36.3051C51.3447 37.0922 53.1102 37.4688 54.9922 37.4688V33.4688ZM51.5124 32.7233C50.5029 32.2124 49.7397 31.5374 49.1762 30.6979L45.855 32.9271C46.8228 34.3689 48.1221 35.4907 49.7064 36.2923L51.5124 32.7233ZM49.1935 30.7241C48.6678 29.9136 48.3906 28.9841 48.3906 27.875H44.3906C44.3906 29.7034 44.8635 31.3989 45.8377 32.9009L49.1935 30.7241ZM48.3906 27.875C48.3906 26.8012 48.5915 25.9277 48.9403 25.2085L45.341 23.4634C44.6897 24.8067 44.3906 26.2925 44.3906 27.875H48.3906ZM48.9403 25.2085C49.2901 24.4869 49.8041 23.8716 50.5185 23.353L48.169 20.1158C46.9459 21.0034 45.9911 22.1225 45.341 23.4634L48.9403 25.2085ZM50.5231 23.3496C51.2523 22.8172 52.2247 22.3716 53.4988 22.0599L52.5481 18.1745C50.8846 18.5815 49.4039 19.2141 48.1644 20.1191L50.5231 23.3496ZM53.5182 22.055C54.7878 21.7309 56.3184 21.5547 58.1328 21.5547V17.5547C56.0722 17.5547 54.1966 17.7535 52.5287 18.1794L53.5182 22.055ZM58.1328 21.5547H62.0469V17.5547H58.1328V21.5547ZM79.9062 15.1719H81.9062V15.0999L81.9011 15.0282L79.9062 15.1719ZM79.9062 35V37H81.9062V35H79.9062ZM73.1562 35H71.1562V37H73.1562V35ZM73.1562 9.64062V7.64062H71.1562V9.64062H73.1562ZM79.5078 9.64062L81.5026 9.49693L81.3689 7.64062H79.5078V9.64062ZM87.5469 9.47656L89.5465 9.51401L89.573 8.10036L88.2491 7.6039L87.5469 9.47656ZM87.4297 15.7344L87.1468 17.7143L89.387 18.0343L89.4293 15.7718L87.4297 15.7344ZM86.2344 15.6172L86.0286 17.6066L86.0649 17.6103L86.1013 17.6128L86.2344 15.6172ZM82.5078 15.9219L83.1532 17.8149L83.1655 17.8107L83.1778 17.8063L82.5078 15.9219ZM80.7734 16.9766L79.3592 15.5623L79.3472 15.5743L79.3355 15.5865L80.7734 16.9766ZM79.7422 18.6875L77.8538 18.0288L77.8469 18.0485L77.8404 18.0683L79.7422 18.6875ZM79.3672 20.9844L78.7744 22.8945L81.2709 23.6693L81.3659 21.0571L79.3672 20.9844ZM78.0078 20.5625H76.0078V22.0359L77.415 22.4726L78.0078 20.5625ZM78.5 16.0391L80.4454 16.5033L80.4465 16.4984L78.5 16.0391ZM79.9297 12.4062L78.2308 11.3509L78.225 11.3602L78.2193 11.3696L79.9297 12.4062ZM86.5859 9.26562L86.27 11.2405L86.3087 11.2467L86.3476 11.2514L86.5859 9.26562ZM77.9062 15.1719V35H81.9062V15.1719H77.9062ZM79.9062 33H73.1562V37H79.9062V33ZM75.1562 35V9.64062H71.1562V35H75.1562ZM73.1562 11.6406H79.5078V7.64062H73.1562V11.6406ZM77.513 9.78432L77.9114 15.3156L81.9011 15.0282L81.5026 9.49693L77.513 9.78432ZM85.5472 9.43912L85.43 15.6969L89.4293 15.7718L89.5465 9.51401L85.5472 9.43912ZM87.7125 13.7545C87.319 13.6983 86.8675 13.655 86.3674 13.6216L86.1013 17.6128C86.5388 17.6419 86.8841 17.6767 87.1468 17.7143L87.7125 13.7545ZM86.4402 13.6278C85.9326 13.5753 85.4486 13.5469 84.9922 13.5469V17.5469C85.2857 17.5469 85.6299 17.5653 86.0286 17.6066L86.4402 13.6278ZM84.9922 13.5469C83.871 13.5469 82.8063 13.6931 81.8378 14.0374L83.1778 17.8063C83.6156 17.6507 84.2071 17.5469 84.9922 17.5469V13.5469ZM81.8625 14.0289C80.9136 14.3523 80.0644 14.8572 79.3592 15.5623L82.1877 18.3908C82.42 18.1584 82.7271 17.9602 83.1532 17.8149L81.8625 14.0289ZM79.3355 15.5865C78.6632 16.282 78.1747 17.1087 77.8538 18.0288L81.6306 19.3462C81.7784 18.9226 81.9775 18.6086 82.2114 18.3666L79.3355 15.5865ZM77.8404 18.0683C77.5533 18.9504 77.4051 19.9052 77.3685 20.9117L81.3659 21.0571C81.3918 20.3448 81.4936 19.7684 81.6439 19.3067L77.8404 18.0683ZM79.96 19.0742L78.6006 18.6524L77.415 22.4726L78.7744 22.8945L79.96 19.0742ZM80.0078 20.5625C80.0078 19.0539 80.1588 17.7042 80.4454 16.5033L76.5546 15.5748C76.185 17.1239 76.0078 18.7899 76.0078 20.5625H80.0078ZM80.4465 16.4984C80.7353 15.2748 81.1414 14.2657 81.6401 13.4429L78.2193 11.3696C77.468 12.6093 76.921 14.0221 76.5535 15.5798L80.4465 16.4984ZM81.6286 13.4616C82.1248 12.6628 82.6919 12.1032 83.3152 11.7229L81.2317 8.30835C80.0112 9.05304 79.0158 10.0872 78.2308 11.3509L81.6286 13.4616ZM83.3152 11.7229C83.8925 11.3706 84.5798 11.1719 85.4375 11.1719V7.17188C83.9202 7.17188 82.4981 7.53563 81.2317 8.30835L83.3152 11.7229ZM85.4375 11.1719C85.7011 11.1719 85.9781 11.1938 86.27 11.2405L86.9019 7.29074C86.4125 7.21243 85.9239 7.17188 85.4375 7.17188V11.1719ZM86.3476 11.2514C86.6469 11.2873 86.7965 11.3312 86.8446 11.3492L88.2491 7.6039C87.7972 7.43443 87.3062 7.33771 86.8242 7.27987L86.3476 11.2514ZM96.9453 0.875L98.7056 -0.074439L98.1389 -1.125H96.9453V0.875ZM103.367 12.7812L101.607 13.7307L103.367 16.9943L105.127 13.7307L103.367 12.7812ZM109.789 0.875V-1.125H108.595L108.029 -0.074439L109.789 0.875ZM117.828 0.875L119.554 1.88601L121.318 -1.125H117.828V0.875ZM107.914 17.7969L106.188 16.7859L105.593 17.8015L106.192 18.8148L107.914 17.7969ZM118.086 35V37H121.592L119.808 33.9821L118.086 35ZM109.977 35L108.22 35.9563L108.788 37H109.977V35ZM103.367 22.8594L105.124 21.9031L103.367 18.6765L101.611 21.9031L103.367 22.8594ZM96.7578 35V37H97.9462L98.5144 35.9563L96.7578 35ZM88.6016 35L86.881 33.9803L85.0914 37H88.6016V35ZM98.7969 17.7969L100.517 18.8165L101.119 17.8015L100.521 16.7841L98.7969 17.7969ZM88.8594 0.875V-1.125H85.3655L87.1348 1.88779L88.8594 0.875ZM95.185 1.82444L101.607 13.7307L105.127 11.8318L98.7056 -0.074439L95.185 1.82444ZM105.127 13.7307L111.549 1.82444L108.029 -0.074439L101.607 11.8318L105.127 13.7307ZM109.789 2.875H117.828V-1.125H109.789V2.875ZM116.102 -0.136009L106.188 16.7859L109.64 18.8079L119.554 1.88601L116.102 -0.136009ZM106.192 18.8148L116.364 36.0179L119.808 33.9821L109.636 16.7789L106.192 18.8148ZM118.086 33H109.977V37H118.086V33ZM111.733 34.0437L105.124 21.9031L101.611 23.8157L108.22 35.9563L111.733 34.0437ZM101.611 21.9031L95.0012 34.0437L98.5144 35.9563L105.124 23.8157L101.611 21.9031ZM96.7578 33H88.6016V37H96.7578V33ZM90.3221 36.0197L100.517 18.8165L97.0763 16.7772L86.881 33.9803L90.3221 36.0197ZM100.521 16.7841L90.584 -0.137787L87.1348 1.88779L97.0723 18.8097L100.521 16.7841ZM88.8594 2.875H96.9453V-1.125H88.8594V2.875Z" fill="#53DC3C" fill-opacity="0.2"/>
</svg>
