<svg width="281" height="154" viewBox="0 0 281 154" fill="none" xmlns="http://www.w3.org/2000/svg">
<g clip-path="url(#clip0_167_295)">
<path d="M37.7526 80.001H28.7679C28.4519 80.001 28.1489 80.1265 27.9256 80.3499C27.7022 80.5733 27.5767 80.8763 27.5767 81.1922V85.1359C27.5767 85.4518 27.7022 85.7548 27.9256 85.9782C28.1489 86.2016 28.4519 86.3271 28.7679 86.3271H30.2567V92.236H36.2637V86.3271H37.7526C38.0685 86.3271 38.3715 86.2016 38.5949 85.9782C38.8183 85.7548 38.9438 85.4518 38.9438 85.1359V81.1922C38.9437 80.8763 38.8183 80.5733 38.5949 80.3499C38.3715 80.1265 38.0685 80.001 37.7526 80.001Z" fill="#428837"/>
<path d="M46.7516 116.093C41.249 108.042 38.4361 98.4551 38.7156 88.7068C38.7206 88.4819 38.6476 88.2621 38.509 88.0849C38.3703 87.9077 38.1747 87.7839 37.9551 87.7346V86.0306H28.4661V87.7109H28.3354C28.2015 87.7111 28.0692 87.7389 27.9465 87.7925C27.8239 87.8461 27.7137 87.9244 27.6227 88.0226C27.5317 88.1207 27.4619 88.2365 27.4177 88.3629C27.3734 88.4892 27.3557 88.6233 27.3656 88.7567C28.1132 99.1775 25.5889 108.523 19.7926 116.792C19.4591 117.267 19.2887 117.838 19.307 118.418L20.3446 150.514C20.3695 151.23 20.67 151.908 21.1832 152.408C21.6965 152.908 22.3829 153.19 23.0992 153.195H44.562C45.2865 153.189 45.98 152.901 46.4949 152.391C47.0097 151.881 47.3052 151.191 47.3183 150.466L47.7182 119.304C47.73 118.161 47.3928 117.041 46.7516 116.093Z" fill="#3F3D56"/>
<path opacity="0.2" d="M35.8797 81.286C35.8797 81.9676 35.6089 82.6213 35.1269 83.1032C34.645 83.5852 33.9913 83.856 33.3097 83.856C32.6281 83.856 31.9744 83.5852 31.4925 83.1032C31.0105 82.6213 30.7397 81.9676 30.7397 81.286" fill="black"/>
<path d="M43.3541 126.754H40.7551C40.507 125.144 39.6908 123.676 38.4543 122.616C37.2177 121.555 35.6424 120.972 34.0133 120.972C32.3843 120.972 30.809 121.555 29.5724 122.616C28.3358 123.676 27.5197 125.144 27.2716 126.754H24.6724C24.3959 126.754 24.1226 126.814 23.8713 126.93C23.6201 127.045 23.3968 127.214 23.2167 127.424C23.0366 127.633 22.9041 127.88 22.8281 128.146C22.7522 128.412 22.7346 128.691 22.7767 128.964L25.5998 147.314H41.8102L45.2393 129.026C45.2912 128.749 45.2815 128.464 45.2107 128.191C45.14 127.918 45.01 127.664 44.83 127.447C44.6501 127.231 44.4245 127.056 44.1694 126.936C43.9143 126.817 43.6359 126.754 43.3541 126.754Z" fill="#428837"/>
<path d="M261.76 97.2596L261.136 122.177L260.364 153.075H234.084L233.18 116.874L232.689 97.2596H261.76Z" fill="#E6E6E6"/>
<path d="M248.968 84.0032H245.247V133.307H248.968V84.0032Z" fill="#428837"/>
<path d="M259.899 116.035L259.196 151.45H235.242L234.417 109.957C236.575 109.351 238.835 109.196 241.056 109.501C243.276 109.807 245.41 110.566 247.325 111.732C251.327 114.099 255.823 115.374 259.899 116.035Z" fill="#3F3D56"/>
<path d="M241.172 120.021H237.757V123.436H241.172V120.021Z" fill="#E6E6E6"/>
<path d="M243.497 113.044H240.083V116.459H243.497V113.044Z" fill="#E6E6E6"/>
<path d="M250.829 117.874L248.086 115.841L246.052 118.583L248.795 120.617L250.829 117.874Z" fill="#E6E6E6"/>
<path d="M256.998 123.924L254.256 121.89L252.222 124.633L254.964 126.667L256.998 123.924Z" fill="#E6E6E6"/>
<path d="M246.533 127.413L243.79 125.379L241.756 128.121L244.499 130.155L246.533 127.413Z" fill="#E6E6E6"/>
<path d="M254.55 111.679C254.936 111.679 255.248 111.366 255.248 110.981C255.248 110.596 254.936 110.283 254.55 110.283C254.165 110.283 253.853 110.596 253.853 110.981C253.853 111.366 254.165 111.679 254.55 111.679Z" fill="#3F3D56"/>
<path d="M240.363 107.027C240.749 107.027 241.061 106.715 241.061 106.33C241.061 105.944 240.749 105.632 240.363 105.632C239.978 105.632 239.666 105.944 239.666 106.33C239.666 106.715 239.978 107.027 240.363 107.027Z" fill="#3F3D56"/>
<path d="M252.224 102.143C252.61 102.143 252.922 101.831 252.922 101.446C252.922 101.06 252.61 100.748 252.224 100.748C251.839 100.748 251.527 101.06 251.527 101.446C251.527 101.831 251.839 102.143 252.224 102.143Z" fill="#3F3D56"/>
<path d="M140.533 152.863C182.745 152.863 216.964 118.643 216.964 76.4314C216.964 34.2195 182.745 0 140.533 0C98.321 0 64.1016 34.2195 64.1016 76.4314C64.1016 118.643 98.321 152.863 140.533 152.863Z" fill="#428837"/>
<path opacity="0.2" d="M140.533 132.219C127.626 132.219 115.119 127.744 105.142 119.556C95.1649 111.368 88.3357 99.9737 85.8178 87.315C83.2999 74.6564 85.2491 61.5163 91.3333 50.1337C97.4175 38.7511 107.26 29.8302 119.184 24.8911C131.109 19.9519 144.377 19.3002 156.727 23.0468C169.078 26.7934 179.748 34.7067 186.918 45.4381C194.089 56.1696 197.317 69.0554 196.052 81.8999C194.787 94.7444 189.107 106.753 179.981 115.879C174.812 121.076 168.665 125.196 161.893 128C155.122 130.805 147.862 132.239 140.533 132.219ZM140.533 24.0845C111.669 24.0845 88.1858 47.5672 88.1858 76.4314C88.1858 105.295 111.669 128.778 140.533 128.778C169.397 128.778 192.88 105.295 192.88 76.4314C192.88 47.5672 169.397 24.0845 140.533 24.0845Z" fill="black"/>
<path d="M140.533 130.499C170.393 130.499 194.6 106.292 194.6 76.4314C194.6 46.5709 170.393 22.3642 140.533 22.3642C110.672 22.3642 86.4656 46.5709 86.4656 76.4314C86.4656 106.292 110.672 130.499 140.533 130.499Z" fill="#3F3D56"/>
<path d="M100.324 54.8121C99.9139 54.009 99.6662 53.133 99.5949 52.2341C99.5237 51.3352 99.6303 50.4311 99.9087 49.5734C100.187 48.7158 100.632 47.9214 101.217 47.2357C101.803 46.55 102.518 45.9864 103.321 45.5773C104.125 45.1681 105.001 44.9213 105.9 44.851C106.799 44.7806 107.703 44.8882 108.561 45.1675C109.418 45.4468 110.212 45.8923 110.897 46.4786C111.582 47.0649 112.145 47.7805 112.553 48.5845L127.829 78.5806C128.239 79.3837 128.486 80.2597 128.558 81.1586C128.629 82.0575 128.522 82.9616 128.244 83.8193C127.965 84.6769 127.521 85.4713 126.935 86.157C126.35 86.8427 125.635 87.4063 124.831 87.8154C124.028 88.2246 123.151 88.4714 122.252 88.5418C121.353 88.6121 120.449 88.5045 119.592 88.2252C118.735 87.9459 117.941 87.5004 117.256 86.9141C116.57 86.3278 116.008 85.6122 115.599 84.8082L100.324 54.8121Z" fill="#FF6584"/>
<path opacity="0.2" d="M102.028 58.1578L101.323 56.7734C104.842 54.0395 108.973 52.0289 113.552 50.5458L114.257 51.9302C109.301 52.9622 105.085 54.8721 102.028 58.1578Z" fill="black"/>
<path opacity="0.2" d="M105.318 64.6186L104.613 63.2341C108.132 60.5002 112.263 58.4896 116.842 57.0065L117.547 58.3909C112.591 59.4229 108.375 61.3328 105.318 64.6186Z" fill="black"/>
<path opacity="0.2" d="M108.608 71.0793L107.903 69.6948C111.422 66.9609 115.553 64.9503 120.132 63.4672L120.837 64.8516C115.881 65.8836 111.665 67.7935 108.608 71.0793Z" fill="black"/>
<path opacity="0.2" d="M111.898 77.5399L111.193 76.1555C114.712 73.4216 118.843 71.411 123.422 69.9279L124.127 71.3123C119.171 72.3443 114.955 74.2542 111.898 77.5399Z" fill="black"/>
<path opacity="0.2" d="M115.188 84.0006L114.483 82.6162C118.002 79.8823 122.133 77.8717 126.712 76.3885L127.417 77.773C122.462 78.805 118.245 80.7149 115.188 84.0006Z" fill="black"/>
<path d="M88.8642 66.0416C88.4542 65.2385 88.2066 64.3625 88.1354 63.4637C88.0642 62.5648 88.1709 61.6608 88.4493 60.8032C88.7277 59.9456 89.1724 59.1513 89.758 58.4656C90.3436 57.78 91.0585 57.2165 91.862 56.8073C92.6655 56.3982 93.5417 56.1514 94.4406 56.0811C95.3395 56.0107 96.2434 56.1182 97.1008 56.3975C97.9581 56.6767 98.752 57.1221 99.4371 57.7084C100.122 58.2946 100.685 59.0101 101.093 59.8139L116.369 89.81C117.192 91.4315 117.338 93.3136 116.775 95.0427C116.212 96.7719 114.985 98.2067 113.365 99.032C111.744 99.8573 109.862 100.005 108.132 99.444C106.403 98.8826 104.967 97.6574 104.14 96.0377L88.8642 66.0416Z" fill="#FF6584"/>
<path opacity="0.2" d="M90.5678 69.3873L89.8628 68.0029C93.3813 65.269 97.513 63.2583 102.092 61.7752L102.797 63.1596C97.8412 64.1917 93.6249 66.1015 90.5678 69.3873Z" fill="black"/>
<path opacity="0.2" d="M93.8579 75.848L93.1528 74.4635C96.6714 71.7297 100.803 69.719 105.382 68.2359L106.087 69.6203C101.131 70.6523 96.9149 72.5622 93.8579 75.848Z" fill="black"/>
<path opacity="0.2" d="M97.1481 82.3087L96.4431 80.9243C99.9616 78.1904 104.093 76.1798 108.672 74.6966L109.377 76.0811C104.421 77.1131 100.205 79.0229 97.1481 82.3087Z" fill="black"/>
<path opacity="0.2" d="M100.438 88.7694L99.7332 87.3849C103.252 84.651 107.383 82.6404 111.962 81.1573L112.667 82.5417C107.712 83.5737 103.495 85.4836 100.438 88.7694Z" fill="black"/>
<path opacity="0.2" d="M103.728 95.2301L103.023 93.8457C106.542 91.1118 110.673 89.1012 115.252 87.618L115.957 89.0025C111.002 90.0345 106.785 91.9443 103.728 95.2301Z" fill="black"/>
<path d="M176.66 78.1517L176.708 78.1517C178.353 78.1655 179.964 77.6831 181.331 76.7674C182.698 75.8518 183.758 74.5453 184.371 73.0186C185.633 69.8297 186.268 66.4277 186.244 62.9984C186.158 48.4836 174.349 36.5759 159.836 36.3751C153.655 36.2886 147.634 38.3421 142.794 42.1876C137.954 46.0331 134.592 51.434 133.28 57.4747C131.967 63.5154 132.783 69.8242 135.591 75.3316C138.398 80.8391 143.023 85.2064 148.683 87.6932C150.178 88.3554 151.839 88.5501 153.447 88.2519C155.056 87.9537 156.536 87.1764 157.695 86.022C160.18 83.5236 163.136 81.5419 166.39 80.1911C169.645 78.8403 173.135 78.1472 176.66 78.1517Z" fill="#E6E6E6"/>
<path d="M162.897 70.0416C167.783 70.0416 171.744 66.0805 171.744 61.1942C171.744 56.3079 167.783 52.3468 162.897 52.3468C158.011 52.3468 154.05 56.3079 154.05 61.1942C154.05 66.0805 158.011 70.0416 162.897 70.0416Z" fill="#F9A825"/>
<path d="M143.668 60.1994C144.244 60.1994 144.71 59.7327 144.71 59.1571C144.71 58.5815 144.244 58.1149 143.668 58.1149C143.093 58.1149 142.626 58.5815 142.626 59.1571C142.626 59.7327 143.093 60.1994 143.668 60.1994Z" fill="#3F3D56"/>
<path d="M109.262 61.1824C109.838 61.1824 110.304 60.7158 110.304 60.1401C110.304 59.5645 109.838 59.0979 109.262 59.0979C108.686 59.0979 108.22 59.5645 108.22 60.1401C108.22 60.7158 108.686 61.1824 109.262 61.1824Z" fill="#3F3D56"/>
<path d="M149.223 49.3978C149.799 49.3978 150.265 48.9311 150.265 48.3555C150.265 47.7799 149.799 47.3132 149.223 47.3132C148.648 47.3132 148.181 47.7799 148.181 48.3555C148.181 48.9311 148.648 49.3978 149.223 49.3978Z" fill="#3F3D56"/>
<path d="M149.194 79.4397C149.769 79.4397 150.236 78.9731 150.236 78.3975C150.236 77.8219 149.769 77.3552 149.194 77.3552C148.618 77.3552 148.151 77.8219 148.151 78.3975C148.151 78.9731 148.618 79.4397 149.194 79.4397Z" fill="#3F3D56"/>
<path d="M169.837 47.2451C170.413 47.2451 170.88 46.7785 170.88 46.2029C170.88 45.6273 170.413 45.1606 169.837 45.1606C169.262 45.1606 168.795 45.6273 168.795 46.2029C168.795 46.7785 169.262 47.2451 169.837 47.2451Z" fill="#3F3D56"/>
<path d="M102.499 75.7533C103.075 75.7533 103.542 75.2867 103.542 74.7111C103.542 74.1354 103.075 73.6688 102.499 73.6688C101.924 73.6688 101.457 74.1354 101.457 74.7111C101.457 75.2867 101.924 75.7533 102.499 75.7533Z" fill="#3F3D56"/>
<path d="M110.118 90.7447C110.693 90.7447 111.16 90.2781 111.16 89.7024C111.16 89.1268 110.693 88.6602 110.118 88.6602C109.542 88.6602 109.075 89.1268 109.075 89.7024C109.075 90.2781 109.542 90.7447 110.118 90.7447Z" fill="#3F3D56"/>
<path d="M157.982 95.6007C160.153 95.6007 161.914 93.8402 161.914 91.6685C161.914 89.4968 160.153 87.7363 157.982 87.7363C155.81 87.7363 154.05 89.4968 154.05 91.6685C154.05 93.8402 155.81 95.6007 157.982 95.6007Z" fill="#FF6584"/>
<path opacity="0.2" d="M160.931 91.9142C160.931 92.6964 160.62 93.4465 160.067 93.9996C159.514 94.5526 158.764 94.8633 157.982 94.8633C157.199 94.8633 156.449 94.5526 155.896 93.9996C155.343 93.4465 155.032 92.6964 155.032 91.9142" fill="black"/>
<path opacity="0.2" d="M155.032 91.4227C155.032 90.6406 155.343 89.8904 155.896 89.3374C156.449 88.7843 157.199 88.4736 157.982 88.4736C158.764 88.4736 159.514 88.7843 160.067 89.3374C160.62 89.8904 160.931 90.6406 160.931 91.4227" fill="black"/>
<path d="M156.507 90.6854C156.643 90.6854 156.753 90.5204 156.753 90.3168C156.753 90.1132 156.643 89.9482 156.507 89.9482C156.371 89.9482 156.261 90.1132 156.261 90.3168C156.261 90.5204 156.371 90.6854 156.507 90.6854Z" fill="#FF6584"/>
<path d="M157.982 90.1939C158.117 90.1939 158.227 90.0289 158.227 89.8253C158.227 89.6217 158.117 89.4567 157.982 89.4567C157.846 89.4567 157.736 89.6217 157.736 89.8253C157.736 90.0289 157.846 90.1939 157.982 90.1939Z" fill="#FF6584"/>
<path d="M157.982 93.3888C158.117 93.3888 158.227 93.2238 158.227 93.0202C158.227 92.8166 158.117 92.6515 157.982 92.6515C157.846 92.6515 157.736 92.8166 157.736 93.0202C157.736 93.2238 157.846 93.3888 157.982 93.3888Z" fill="#FF6584"/>
<path d="M159.456 91.4227C159.592 91.4227 159.702 91.2577 159.702 91.0541C159.702 90.8505 159.592 90.6854 159.456 90.6854C159.32 90.6854 159.21 90.8505 159.21 91.0541C159.21 91.2577 159.32 91.4227 159.456 91.4227Z" fill="#FF6584"/>
<path d="M159.21 94.1261C159.346 94.1261 159.456 93.961 159.456 93.7574C159.456 93.5538 159.346 93.3888 159.21 93.3888C159.075 93.3888 158.965 93.5538 158.965 93.7574C158.965 93.961 159.075 94.1261 159.21 94.1261Z" fill="#FF6584"/>
<path d="M156.261 92.8973C156.397 92.8973 156.507 92.7322 156.507 92.5286C156.507 92.325 156.397 92.16 156.261 92.16C156.125 92.16 156.015 92.325 156.015 92.5286C156.015 92.7322 156.125 92.8973 156.261 92.8973Z" fill="#FF6584"/>
<path d="M165.846 85.033C168.018 85.033 169.778 83.2725 169.778 81.1008C169.778 78.9291 168.018 77.1686 165.846 77.1686C163.674 77.1686 161.914 78.9291 161.914 81.1008C161.914 83.2725 163.674 85.033 165.846 85.033Z" fill="#FF6584"/>
<path opacity="0.2" d="M168.795 81.3466C168.795 82.1287 168.484 82.8788 167.931 83.4319C167.378 83.985 166.628 84.2957 165.846 84.2957C165.064 84.2957 164.314 83.985 163.76 83.4319C163.207 82.8788 162.897 82.1287 162.897 81.3466" fill="black"/>
<path opacity="0.2" d="M162.897 80.855C162.897 80.0729 163.207 79.3228 163.76 78.7697C164.314 78.2166 165.064 77.9059 165.846 77.9059C166.628 77.9059 167.378 78.2166 167.931 78.7697C168.484 79.3228 168.795 80.0729 168.795 80.855" fill="black"/>
<path d="M164.371 80.1177C164.507 80.1177 164.617 79.9527 164.617 79.7491C164.617 79.5455 164.507 79.3805 164.371 79.3805C164.236 79.3805 164.126 79.5455 164.126 79.7491C164.126 79.9527 164.236 80.1177 164.371 80.1177Z" fill="#FF6584"/>
<path d="M165.846 79.6263C165.982 79.6263 166.092 79.4612 166.092 79.2576C166.092 79.054 165.982 78.889 165.846 78.889C165.71 78.889 165.6 79.054 165.6 79.2576C165.6 79.4612 165.71 79.6263 165.846 79.6263Z" fill="#FF6584"/>
<path d="M165.846 82.8211C165.982 82.8211 166.092 82.6561 166.092 82.4525C166.092 82.2489 165.982 82.0839 165.846 82.0839C165.71 82.0839 165.6 82.2489 165.6 82.4525C165.6 82.6561 165.71 82.8211 165.846 82.8211Z" fill="#FF6584"/>
<path d="M167.32 80.855C167.456 80.855 167.566 80.69 167.566 80.4864C167.566 80.2828 167.456 80.1177 167.32 80.1177C167.185 80.1177 167.075 80.2828 167.075 80.4864C167.075 80.69 167.185 80.855 167.32 80.855Z" fill="#FF6584"/>
<path d="M167.075 83.5584C167.211 83.5584 167.321 83.3933 167.321 83.1897C167.321 82.9862 167.211 82.8211 167.075 82.8211C166.939 82.8211 166.829 82.9862 166.829 83.1897C166.829 83.3933 166.939 83.5584 167.075 83.5584Z" fill="#FF6584"/>
<path d="M164.126 82.3296C164.261 82.3296 164.371 82.1646 164.371 81.961C164.371 81.7574 164.261 81.5923 164.126 81.5923C163.99 81.5923 163.88 81.7574 163.88 81.961C163.88 82.1646 163.99 82.3296 164.126 82.3296Z" fill="#FF6584"/>
<path d="M173.71 90.4397C175.882 90.4397 177.642 88.6792 177.642 86.5075C177.642 84.3358 175.882 82.5753 173.71 82.5753C171.539 82.5753 169.778 84.3358 169.778 86.5075C169.778 88.6792 171.539 90.4397 173.71 90.4397Z" fill="#428837"/>
<path opacity="0.2" d="M176.659 86.7533C176.659 87.5354 176.349 88.2855 175.796 88.8386C175.243 89.3917 174.493 89.7024 173.71 89.7024C172.928 89.7024 172.178 89.3917 171.625 88.8386C171.072 88.2855 170.761 87.5354 170.761 86.7533" fill="black"/>
<path opacity="0.2" d="M170.761 86.2618C170.761 85.4796 171.072 84.7295 171.625 84.1764C172.178 83.6233 172.928 83.3126 173.71 83.3126C174.493 83.3126 175.243 83.6233 175.796 84.1764C176.349 84.7295 176.659 85.4796 176.659 86.2618" fill="black"/>
<path d="M172.236 85.5245C172.371 85.5245 172.482 85.3594 172.482 85.1558C172.482 84.9522 172.371 84.7872 172.236 84.7872C172.1 84.7872 171.99 84.9522 171.99 85.1558C171.99 85.3594 172.1 85.5245 172.236 85.5245Z" fill="#428837"/>
<path d="M173.71 85.033C173.846 85.033 173.956 84.8679 173.956 84.6643C173.956 84.4607 173.846 84.2957 173.71 84.2957C173.575 84.2957 173.465 84.4607 173.465 84.6643C173.465 84.8679 173.575 85.033 173.71 85.033Z" fill="#428837"/>
<path d="M173.71 88.2278C173.846 88.2278 173.956 88.0628 173.956 87.8592C173.956 87.6556 173.846 87.4906 173.71 87.4906C173.575 87.4906 173.465 87.6556 173.465 87.8592C173.465 88.0628 173.575 88.2278 173.71 88.2278Z" fill="#428837"/>
<path d="M175.185 86.2618C175.321 86.2618 175.431 86.0967 175.431 85.8931C175.431 85.6895 175.321 85.5245 175.185 85.5245C175.049 85.5245 174.939 85.6895 174.939 85.8931C174.939 86.0967 175.049 86.2618 175.185 86.2618Z" fill="#428837"/>
<path d="M174.939 88.9651C175.075 88.9651 175.185 88.8001 175.185 88.5965C175.185 88.3929 175.075 88.2278 174.939 88.2278C174.803 88.2278 174.693 88.3929 174.693 88.5965C174.693 88.8001 174.803 88.9651 174.939 88.9651Z" fill="#428837"/>
<path d="M171.99 87.7363C172.126 87.7363 172.236 87.5713 172.236 87.3677C172.236 87.1641 172.126 86.999 171.99 86.999C171.854 86.999 171.744 87.1641 171.744 87.3677C171.744 87.5713 171.854 87.7363 171.99 87.7363Z" fill="#428837"/>
<path d="M154.05 90.9312C156.221 90.9312 157.982 89.1707 157.982 86.9991C157.982 84.8274 156.221 83.0669 154.05 83.0669C151.878 83.0669 150.117 84.8274 150.117 86.9991C150.117 89.1707 151.878 90.9312 154.05 90.9312Z" fill="#428837"/>
<path opacity="0.2" d="M156.999 87.2448C156.999 88.027 156.688 88.7771 156.135 89.3302C155.582 89.8832 154.832 90.1939 154.05 90.1939C153.268 90.1939 152.517 89.8832 151.964 89.3302C151.411 88.7771 151.101 88.027 151.101 87.2448" fill="black"/>
<path opacity="0.2" d="M151.101 86.7533C151.101 85.9711 151.411 85.221 151.964 84.6679C152.517 84.1149 153.268 83.8042 154.05 83.8042C154.832 83.8042 155.582 84.1149 156.135 84.6679C156.688 85.221 156.999 85.9711 156.999 86.7533" fill="black"/>
<path d="M152.575 86.016C152.711 86.016 152.821 85.851 152.821 85.6474C152.821 85.4438 152.711 85.2787 152.575 85.2787C152.439 85.2787 152.329 85.4438 152.329 85.6474C152.329 85.851 152.439 86.016 152.575 86.016Z" fill="#428837"/>
<path d="M154.049 85.5245C154.185 85.5245 154.295 85.3594 154.295 85.1558C154.295 84.9522 154.185 84.7872 154.049 84.7872C153.914 84.7872 153.804 84.9522 153.804 85.1558C153.804 85.3594 153.914 85.5245 154.049 85.5245Z" fill="#428837"/>
<path d="M154.049 88.7194C154.185 88.7194 154.295 88.5543 154.295 88.3507C154.295 88.1471 154.185 87.9821 154.049 87.9821C153.914 87.9821 153.804 88.1471 153.804 88.3507C153.804 88.5543 153.914 88.7194 154.049 88.7194Z" fill="#428837"/>
<path d="M155.524 86.7533C155.66 86.7533 155.77 86.5882 155.77 86.3846C155.77 86.181 155.66 86.016 155.524 86.016C155.388 86.016 155.278 86.181 155.278 86.3846C155.278 86.5882 155.388 86.7533 155.524 86.7533Z" fill="#428837"/>
<path d="M155.278 89.4566C155.414 89.4566 155.524 89.2916 155.524 89.088C155.524 88.8844 155.414 88.7194 155.278 88.7194C155.143 88.7194 155.032 88.8844 155.032 89.088C155.032 89.2916 155.143 89.4566 155.278 89.4566Z" fill="#428837"/>
<path d="M152.329 88.2278C152.465 88.2278 152.575 88.0628 152.575 87.8592C152.575 87.6556 152.465 87.4906 152.329 87.4906C152.194 87.4906 152.083 87.6556 152.083 87.8592C152.083 88.0628 152.194 88.2278 152.329 88.2278Z" fill="#428837"/>
<path d="M162.897 92.6515C165.068 92.6515 166.829 90.891 166.829 88.7194C166.829 86.5477 165.068 84.7872 162.897 84.7872C160.725 84.7872 158.965 86.5477 158.965 88.7194C158.965 90.891 160.725 92.6515 162.897 92.6515Z" fill="#428837"/>
<path opacity="0.2" d="M165.846 88.9651C165.846 89.3524 165.769 89.7359 165.621 90.0937C165.473 90.4515 165.256 90.7766 164.982 91.0505C164.708 91.3243 164.383 91.5415 164.025 91.6897C163.667 91.8379 163.284 91.9142 162.897 91.9142C162.509 91.9142 162.126 91.8379 161.768 91.6897C161.41 91.5415 161.085 91.3243 160.811 91.0505C160.537 90.7766 160.32 90.4515 160.172 90.0937C160.024 89.7359 159.948 89.3524 159.948 88.9651" fill="black"/>
<path opacity="0.2" d="M159.948 88.4736C159.948 88.0863 160.024 87.7028 160.172 87.345C160.32 86.9872 160.537 86.6621 160.811 86.3883C161.085 86.1144 161.41 85.8972 161.768 85.749C162.126 85.6008 162.509 85.5245 162.897 85.5245C163.284 85.5245 163.667 85.6008 164.025 85.749C164.383 85.8972 164.708 86.1144 164.982 86.3883C165.256 86.6621 165.473 86.9872 165.621 87.345C165.769 87.7028 165.846 88.0863 165.846 88.4736" fill="black"/>
<path d="M161.422 87.7363C161.558 87.7363 161.668 87.5713 161.668 87.3677C161.668 87.1641 161.558 86.999 161.422 86.999C161.287 86.999 161.177 87.1641 161.177 87.3677C161.177 87.5713 161.287 87.7363 161.422 87.7363Z" fill="#428837"/>
<path d="M162.897 87.2448C163.033 87.2448 163.143 87.0797 163.143 86.8761C163.143 86.6726 163.033 86.5075 162.897 86.5075C162.761 86.5075 162.651 86.6726 162.651 86.8761C162.651 87.0797 162.761 87.2448 162.897 87.2448Z" fill="#428837"/>
<path d="M162.897 90.4397C163.033 90.4397 163.143 90.2746 163.143 90.071C163.143 89.8674 163.033 89.7024 162.897 89.7024C162.761 89.7024 162.651 89.8674 162.651 90.071C162.651 90.2746 162.761 90.4397 162.897 90.4397Z" fill="#428837"/>
<path d="M164.371 88.4736C164.507 88.4736 164.617 88.3086 164.617 88.105C164.617 87.9014 164.507 87.7363 164.371 87.7363C164.236 87.7363 164.126 87.9014 164.126 88.105C164.126 88.3086 164.236 88.4736 164.371 88.4736Z" fill="#428837"/>
<path d="M164.126 91.177C164.261 91.177 164.371 91.0119 164.371 90.8083C164.371 90.6047 164.261 90.4397 164.126 90.4397C163.99 90.4397 163.88 90.6047 163.88 90.8083C163.88 91.0119 163.99 91.177 164.126 91.177Z" fill="#428837"/>
<path d="M161.176 89.9482C161.312 89.9482 161.422 89.7831 161.422 89.5795C161.422 89.3759 161.312 89.2109 161.176 89.2109C161.041 89.2109 160.931 89.3759 160.931 89.5795C160.931 89.7831 161.041 89.9482 161.176 89.9482Z" fill="#428837"/>
<path d="M169.041 96.8294C171.212 96.8294 172.973 95.069 172.973 92.8973C172.973 90.7256 171.212 88.9651 169.041 88.9651C166.869 88.9651 165.109 90.7256 165.109 92.8973C165.109 95.069 166.869 96.8294 169.041 96.8294Z" fill="#FF6584"/>
<path opacity="0.2" d="M171.99 93.1431C171.99 93.9252 171.679 94.6753 171.126 95.2284C170.573 95.7815 169.823 96.0922 169.041 96.0922C168.259 96.0922 167.508 95.7815 166.955 95.2284C166.402 94.6753 166.092 93.9252 166.092 93.1431" fill="black"/>
<path opacity="0.2" d="M166.092 92.6515C166.092 91.8694 166.402 91.1192 166.955 90.5662C167.508 90.0131 168.259 89.7024 169.041 89.7024C169.823 89.7024 170.573 90.0131 171.126 90.5662C171.679 91.1192 171.99 91.8694 171.99 92.6515" fill="black"/>
<path d="M167.566 91.9142C167.702 91.9142 167.812 91.7492 167.812 91.5456C167.812 91.342 167.702 91.1769 167.566 91.1769C167.431 91.1769 167.321 91.342 167.321 91.5456C167.321 91.7492 167.431 91.9142 167.566 91.9142Z" fill="#FF6584"/>
<path d="M169.041 91.4227C169.177 91.4227 169.287 91.2577 169.287 91.0541C169.287 90.8505 169.177 90.6854 169.041 90.6854C168.905 90.6854 168.795 90.8505 168.795 91.0541C168.795 91.2577 168.905 91.4227 169.041 91.4227Z" fill="#FF6584"/>
<path d="M169.041 94.6176C169.177 94.6176 169.287 94.4525 169.287 94.2489C169.287 94.0454 169.177 93.8803 169.041 93.8803C168.905 93.8803 168.795 94.0454 168.795 94.2489C168.795 94.4525 168.905 94.6176 169.041 94.6176Z" fill="#FF6584"/>
<path d="M170.516 92.6515C170.651 92.6515 170.761 92.4864 170.761 92.2829C170.761 92.0793 170.651 91.9142 170.516 91.9142C170.38 91.9142 170.27 92.0793 170.27 92.2829C170.27 92.4864 170.38 92.6515 170.516 92.6515Z" fill="#FF6584"/>
<path d="M170.27 95.3549C170.405 95.3549 170.515 95.1898 170.515 94.9862C170.515 94.7826 170.405 94.6176 170.27 94.6176C170.134 94.6176 170.024 94.7826 170.024 94.9862C170.024 95.1898 170.134 95.3549 170.27 95.3549Z" fill="#FF6584"/>
<path d="M167.32 94.1261C167.456 94.1261 167.566 93.961 167.566 93.7574C167.566 93.5538 167.456 93.3888 167.32 93.3888C167.185 93.3888 167.075 93.5538 167.075 93.7574C167.075 93.961 167.185 94.1261 167.32 94.1261Z" fill="#FF6584"/>
<path d="M118.473 78.9482C119.049 78.9482 119.516 78.4816 119.516 77.9059C119.516 77.3303 119.049 76.8637 118.473 76.8637C117.898 76.8637 117.431 77.3303 117.431 77.9059C117.431 78.4816 117.898 78.9482 118.473 78.9482Z" fill="#3F3D56"/>
<path d="M146.804 115.737L121.773 108.796L122.732 105.234L147.763 112.176L146.804 115.737Z" fill="#F9A825"/>
<path d="M143.134 114.547C134.563 116.188 125.757 116.188 117.185 114.547V110.855C125.776 112.279 134.543 112.279 143.134 110.855V114.547Z" fill="#F9A825"/>
<path d="M145.802 103.471C137.231 105.112 128.425 105.112 119.853 103.471V99.7786C128.444 101.202 137.211 101.202 145.802 99.7786V103.471Z" fill="#F9A825"/>
<path d="M154.776 107.901C146.204 109.542 137.398 109.542 128.826 107.901V104.209C137.418 105.633 146.184 105.633 154.776 104.209V107.901Z" fill="#F9A825"/>
<path d="M156.958 112.086C148.386 113.727 139.581 113.727 131.009 112.086V108.394C139.6 109.817 148.367 109.817 156.958 108.394V112.086Z" fill="#F9A825"/>
<path d="M164.567 117.553L138.966 121.854L138.373 118.211L163.973 113.911L164.567 117.553Z" fill="#F9A825"/>
<path d="M160.743 118.027C153.646 123.143 145.646 126.874 137.165 129.024L135.646 125.669C144.053 123.315 152.018 119.6 159.224 114.672L160.743 118.027Z" fill="#F9A825"/>
<path d="M158.611 106.832C151.513 111.948 143.513 115.679 135.032 117.829L133.513 114.474C141.92 112.12 149.885 108.405 157.092 103.477L158.611 106.832Z" fill="#F9A825"/>
<path d="M168.587 107.055C161.489 112.171 153.489 115.902 145.008 118.052L143.489 114.697C151.896 112.343 159.861 108.628 167.068 103.7L168.587 107.055Z" fill="#F9A825"/>
<path d="M172.291 109.932C165.193 115.048 157.194 118.779 148.713 120.929L147.194 117.574C155.601 115.22 163.566 111.505 170.772 106.577L172.291 109.932Z" fill="#F9A825"/>
<path d="M141.27 102.728H140.041V103.956H141.27V102.728Z" fill="#00BF71"/>
<path d="M144.956 124.109H143.728V125.338H144.956V124.109Z" fill="#00BF71"/>
<path d="M125.296 102.728H124.067V103.956H125.296V102.728Z" fill="#00BF71"/>
<path d="M153.804 117.965H152.575V119.194H153.804V117.965Z" fill="#00BF71"/>
<path d="M154.541 110.838H153.312V112.067H154.541V110.838Z" fill="#00BF71"/>
<path d="M134.271 107.473L132.847 106.507L132.295 107.321L133.719 108.287L134.271 107.473Z" fill="#00BF71"/>
<path d="M148.771 110.177L147.347 109.211L146.795 110.024L148.219 110.99L148.771 110.177Z" fill="#00BF71"/>
<path d="M131.076 114.846L129.652 113.88L129.1 114.694L130.524 115.66L131.076 114.846Z" fill="#00BF71"/>
<path d="M140.088 114.775L141.053 113.351L140.24 112.799L139.274 114.223L140.088 114.775Z" fill="#00BF71"/>
<path d="M146.723 116.495L147.689 115.071L146.876 114.519L145.91 115.943L146.723 116.495Z" fill="#00BF71"/>
<path d="M164.42 110.596L165.386 109.173L164.572 108.621L163.606 110.044L164.42 110.596Z" fill="#00BF71"/>
<path d="M280.744 152.781H0V153.489H280.744V152.781Z" fill="#3F3D56"/>
</g>
<defs>
<clipPath id="clip0_167_295">
<rect width="280.744" height="153.489" fill="white"/>
</clipPath>
</defs>
</svg>
